<?xml version="1.0" encoding="utf-8"?>
<!-- Generator: Adobe Illustrator 19.1.0, SVG Export Plug-In . SVG Version: 6.00 Build 0)  -->
<svg version="1.1" id="Layer_1" xmlns="http://www.w3.org/2000/svg" xmlns:xlink="http://www.w3.org/1999/xlink" x="0px" y="0px"
	 viewBox="-312.7 771.7 378.9 378.9" style="enable-background:new -312.7 771.7 378.9 378.9;" xml:space="preserve">
<style type="text/css">
	.st0{fill:#F7981D;}
	.st1{fill:#FDBC11;}
	.st2{fill:#B3857B;}
	.st3{fill:#A27A6F;}
	.st4{fill:#A1796F;}
	.st5{fill:#FBBB14;}
	.st6{fill:#F6B81F;}
	.st7{fill:#F9BA1A;}
	.st8{fill:#F5B722;}
	.st9{fill:#F5B721;}
</style>
<g>
	<path class="st0" d="M-312.7,960.3c1.3-107.9,89.3-191.6,194.9-188.5c103.2,3,185.7,87.1,184,192.1
		c-1.8,111.8-95.4,189.6-195.1,186.6C-226.4,1147.5-312.5,1067.3-312.7,960.3z"/>
	<path class="st1" d="M55.7,963.6c1.6,96-79.6,178.7-178.9,178.6c-99-0.1-179.8-81.9-179.3-180.2c0.6-96.4,80-178.6,180.5-178.2
		C-24.3,784.2,58,866.4,55.7,963.6z"/>
	<path class="st0" d="M41.3,963.1c-1.2,90.4-72.5,164-164,164.1c-91.1,0.1-164.4-71-164.6-163.9c-0.3-92.1,72.8-164.8,164.8-164.5
		C-31,799.1,40.2,872.7,41.3,963.1z"/>
	<path class="st2" d="M25.3,963.7c-0.1,81.4-67,148.1-148.6,147.9c-80.4-0.2-148.6-64.8-148.3-149.1c0.3-82.3,66.3-148,148.6-147.8
		C-37.9,814.8,25.7,883.9,25.3,963.7z"/>
	<path class="st0" d="M-123.1,823.4c69.1-1.3,139.4,54.3,139.8,139.4c0.4,77.7-61.2,140.3-139.9,140.2
		c-85.3-0.2-139.8-70.8-139.9-139.5C-263.2,887.5-200.2,822.4-123.1,823.4z"/>
	<path class="st2" d="M-130.5,1056c-6.9,3-14.4,3.3-21.6,4.7c-3.9,0.7-7.9,1.1-11.8,1.6c-6,0.9-8.3-0.6-9.2-6.7
		c-0.8-5.8-0.5-11.6,0.3-17.4c1.5-10.5,3.1-20.9,4.7-31.4c1.5-9.4,1.5-9.3-7.2-11.9c-5.1-1.5-10-3.4-14.2-6.8
		c-7.1-5.7-6.4-11.4,2-14.7c3.7-1.5,7.6-2.3,11.4-3.4c12.8-3.7,17.3-18.3,8.3-28.1c-3.1-3.4-4.7-6.9-4.2-11.4
		c4.7-7.7,12.5-5.7,19.3-5.5c18.1,0.4,34.5,7.2,50.9,14.1c8.8,3.6,17.5,7.7,27.5,5.8c-11.7,2.2-18.4-6.4-26.2-12.4
		c-9.9-7.6-19.8-15.1-30.9-20.7c-8.9-4.5-18.1-7.2-28.3-5.1c-3,0.6-6.4,1.3-8.9-1.6c-2.1-5.3-1.4-11-2.1-16.5
		c-1.5-12.9-2.8-25.8-4.1-38.7c-0.2-2.1-0.6-4.2,0.7-7.9c5.3,11.1,10,21.1,15.2,32c5.9-5.9,9-12.9,13.2-19
		c4.4-6.2,7.8-13.1,13.5-19.7c4.6,12.9,5.6,25.9,10.1,39.2c12.7-7.8,24.3-16.4,36.6-24.2c3,2.9,2.7,6.6,3.5,9.8
		c1.6,6.2,2.7,12.4,4.2,18.6c1.3,5.4,1.5,5.6,7,4.4c10.1-2.3,20.1-4.8,30.1-7.2c2.3-0.6,4.5-1.6,7.1-0.7c1.3,2.1,0,4-0.7,5.9
		c-3.9,11.5-7.8,23.1-11.9,34.5c-5.7,16.3-6.9,33.1-5.7,50.1c2.2,31.3,8.8,61.8,17.9,91.7c2.2,7.2,2.2,7.3-3.6,11.9
		c-11.7,9.3-24.4,16.7-38.7,21.3c-4.3-4.1-1-9-1.5-12.9c-2.2,3.7-5.8,4.3-9.9,3.3c-4.1-1.1-5.8-4.1-6.2-8.2
		c-1.3-12.9,1.2-25.3,5.6-37.4c6.5-18,11.3-36.3,13.7-51.7C-79.2,1006.4-100.8,1046.3-130.5,1056z"/>
	<path class="st3" d="M-130.5,1056c5.9-4.9,12.7-8.6,18.2-14.1c17.9-17.8,29-39.5,35.9-63.6c0.7-2.3,1.2-4.6,1.9-6.9
		c0.1-0.5,0.6-0.8,1.4-1.8c2.7,6.1,1.8,12,1,17.7c-1.8,13.7-5,27-9.8,40c-2.4,6.7-4.2,13.7-6.4,20.5c-2.5,7.7-2.4,15.6-2.5,23.6
		c-0.1,6.1,2,7.5,8.6,6.7c1.4-0.2,2.7-0.8,2.9-2.3c0.3-1.9-1.4-1.9-2.6-2.2c-0.7-0.2-1.4-0.5-2.3-0.8c4.5-2.7,6-2.5,7.5,1.5
		c1.9,5.3,2.6,10.8,0.4,16.3c-10,4.5-20.7,6.3-31.4,8c-6.2,1-7,0-6-6.1c2.2-13,4.4-26,6.6-39.1c0.3-2.1,0.9-4.1,0-7.1
		C-114.5,1050.6-121.8,1055.2-130.5,1056z"/>
	<path class="st4" d="M-168.7,905c16.9-6,32.2-1.4,46.6,7.7c10.3,6.5,20.3,13.4,29.3,21.6c7.9,7.2,16.2,9.2,26.1,5.8
		c0.5-0.2,1-0.1,1.5-0.1c0.2,0,0.4,0.3,0.7,0.5c0.5,3.3-1.9,4.7-4.2,5.8c-5,2.6-10.2,4-16,2.4c-6.6-1.8-13.1-3.9-19.5-6.6
		c-15.8-6.7-31.8-13.2-49.3-13.7c-6.3-0.2-12.6-0.2-18.7,2.1c-0.6-4.8,0.3-9.4,1.4-14C-169.7,912.7-168.6,908.9-168.7,905z"/>
	<path class="st5" d="M-130.9,1013.9c-2.6,14.3-12,24.3-24,26.1c-6,0.9-7.1,0.1-7.1-5.8c0-1.3,0.1-2.6,0.1-4
		c0.5-9.4,1.3-10.1,9.5-8.2C-144.6,1023.7-139.2,1021.2-130.9,1013.9z"/>
	<path class="st6" d="M-106.8,899.3c-0.1-4,1.8-6.8,4.8-7.1c3.3-0.3,6.1,2.8,6.2,6.7c0.1,3.8-2.8,7.4-5.8,7.2
		C-104.4,906.1-106.6,903.1-106.8,899.3z"/>
	<path class="st7" d="M-140.3,953.2c-3.2,3.4-6.6,4.6-9.8,6.3c-1.6,0.9-3.5,1.9-5,0.1c-1.7-2.2-1.8-4.8-1.1-7.5
		c0.5-2.1,2.1-2.9,4.1-2.9C-148,949.2-143.9,949.5-140.3,953.2z"/>
	<path class="st8" d="M-135.5,885.5c-0.1,3.5-2.8,6.5-5.6,6.4c-2.9-0.1-5.3-3.3-5.2-6.8c0-3.6,2.5-6.4,5.6-6.3
		C-137.9,879-135.4,882.1-135.5,885.5z"/>
	<path class="st9" d="M-56.8,913.4c-0.3,2.7-0.6,5.7-4.1,5.7c-3.3-0.1-4-3-4.1-5.7c-0.1-3.2,2.1-5.6,4.5-5.3
		C-57.4,908.5-57.1,910.9-56.8,913.4z"/>
</g>
</svg>
