<?xml version="1.0" encoding="utf-8"?>
<!-- Generator: Adobe Illustrator 19.1.0, SVG Export Plug-In . SVG Version: 6.00 Build 0)  -->
<svg version="1.1" id="Layer_1" xmlns="http://www.w3.org/2000/svg" xmlns:xlink="http://www.w3.org/1999/xlink" x="0px" y="0px"
	 viewBox="-254 675.9 570.1 570.1" style="enable-background:new -254 675.9 570.1 570.1;" xml:space="preserve">
<style type="text/css">
	.st0{fill:#D8D1C9;}
	.st1{fill:#B3857B;}
	.st2{fill:#A1796F;}
	.st3{fill:#8E6B62;}
	.st4{fill:#8F6C62;}
	.st5{fill:#906D63;}
	.st6{fill:#F7B31F;}
	.st7{fill:#F6B31F;}
	.st8{fill:#F6B31C;}
	.st9{fill:#F8B41D;}
	.st10{fill:#F4B125;}
	.st11{fill:#F3B125;}
	.st12{fill:#F5B120;}
	.st13{fill:#F5B21F;}
	.st14{fill:#F6B31D;}
	.st15{fill:#F68B00;}
	.st16{fill:#FBAE17;}
</style>
<circle class="st0" cx="31" cy="960.9" r="285"/>
<g>
	<g>
		<path class="st1" d="M-32.8,815.6c1.4-2.6,3.4-1.6,5.4-1c14.1,4.1,28.3,8.3,42.4,12.4c22.1,6.5,44.2,12.9,66.2,19.4
			c2.7,0.9,3.9,3.1,4.4,5.6c4.7,23.2,11.9,45.8,16,69.2c1.7,9.5,5.3,18.7,7.6,28.2c4.3,17.7,8.5,35.5,12.5,53.3
			c0.9,2,1.1,4.2,1.4,6.4c4.7,15.9,7.4,32.2,12,48.1c0.7,2.5,0.7,4.9-0.2,7.3c-1.3,1.4-3,1-4.7,0.9c-10.5-0.6-21.1-1.2-31.6-1.8
			c-11.4-0.7-22.7-1.3-34.1-2c-2.1-0.1-4.1,0.1-6.1,0.5c-12.4,0.5-24.8,0.4-37.2-0.4c-3.3-0.2-6.7-0.2-9.7-1.9
			c-2.7-1.7-3.3-4.5-3.9-7.4c-4.2-22.4-7.8-44.8-11.9-67.2c-0.5-2.8-15-86.5-15.7-90.3c-4.1-24.1-8.3-48.1-12.6-72.1
			C-33.1,820.4-32.1,818-32.8,815.6z"/>
		<path class="st2" d="M-2.7,976.9c3,17.3,5.9,34.6,8.9,51.9c1.7,9.8,3.3,19.6,5,29.3c1.2,3.6-1.7,5.2-3.7,7.1
			c-7.1,7-14.7,13.3-22.5,19.4c-3.7,1.4-6.7,3.8-9.7,6.4c-10.8,9.6-21.1,19.6-32.3,28.7c-4.6-0.9-5.2-4.7-5.9-8.4
			c-3-17.2-7.1-34.1-9.2-51.4c0-0.4-0.4-0.7-0.6-1.1c-1-4.4,2-7.4,3.9-10.8c1.3-2.4,3.1-4.4,4.1-7.6c-3.5-1.9-8.6,1.1-11.4-3
			c-4.1-11-5.1-22.6-7.3-34c-6.8-35.1-13.4-70.1-19.9-105.2c-0.7-3.7-0.9-7,2.2-9.7c16.6-17.8,33.1-35.7,49.7-53.5
			c6.1-6.5,12.3-12.9,18.5-19.4c2.2,0.7,2.2,2.7,2.6,4.6c2.2,12,4.2,24.1,6.5,36.1c3.1,16.3,4.9,32.8,8.9,48.9
			c0.7,0.7,6.6,58.9,8,62.5c1.1,2.8,3.3,4.8,4.3,7.5C-2.5,975.7-2.6,976.3-2.7,976.9z"/>
		<path class="st1" d="M-101,888.5c-0.7,7.4,1.6,14.4,2.9,21.5c4.9,26.8,10.1,53.5,15.2,80.3c2.3,11.8,4.6,23.7,6.8,35.5
			c0.7,3.9,1.8,7.7,1.3,11.7c-1.3,2.6-3.6,3.2-6.2,3.3c-21.4,1.3-42.9,2.4-64.3,4c-3.5,0.3-7-0.8-10.5-0.9c-2-2-1.4-4.7-1.4-7.1
			c-0.4-24.9-0.7-49.8-1.1-74.8c-0.3-23.7-0.7-47.4-1-71c-0.1-5.4,0-5.4,5.5-5.1c15.3,1,30.7,2.1,46,3.1
			C-105.4,889.2-103.1,889.6-101,888.5z"/>
		<path class="st2" d="M134.8,1064.6c-3-4.6-3.5-10.1-4.8-15.2c-3.3-12.3-6-24.8-9-37.3c-0.2-1-0.4-2,0.4-2.9
			c0.3-0.3,0.7-0.4,1.1-0.5c0.8-0.1,0.4-0.9,0.6-1.3c1-3.1,4.1-4.7,5.2-7.7c-3.4,0.8-4.7,6.2-9.3,4.3c-4.9-20.2-9.7-40.4-14.6-60.6
			c-0.6-2.4-1.2-4.8-1.8-7.3c-7.2-29.9-14.4-59.8-21.5-89.7c14-8.2,27.7-16.9,42.2-24.1c3.4,2,4.4,5.3,5.3,8.8
			c7.3,28.8,13.9,57.8,21,86.6c8.5,34.3,16.5,68.7,25.1,103c0.6,2.2,1.2,4.4,0.5,6.7c-1.8,5.8-6.2,9.5-11,12.7
			c-3.1,2-6.1,4.1-8.9,6.5c-5.8,3.7-10.3,8.9-15.4,13.3C138.3,1061.6,136.6,1063.1,134.8,1064.6z"/>
		<path class="st1" d="M173.4,1028c-4.2-17.4-8.3-34.7-12.5-52.1c-1.1-4.4-2.3-8.8-3.3-13.3c-6.1-25-12.2-50-18.2-75
			c-5.2-21.8-10.1-43.7-15.9-65.3c2.6-0.4,4.8,0.8,7.1,1.6c13.1,4.3,26.2,8.7,39.3,13.1c3.7,1.8,4.3,5.5,5.1,8.8
			c8.9,34.6,18.1,69.1,27.1,103.7c5.8,21.9,11.4,43.8,17.2,65.7c1.1,4.2,3.8,8.6,0.5,13.1c-4.5,0.8-9,0.4-13.6,0.3
			c-4.3-0.1-8.7-0.2-12.9,1.1c-3.3-0.3-6.4,0.8-9.6,1.2C180,1031.4,175.9,1032.1,173.4,1028z"/>
		<path class="st2" d="M219.8,1028.4c-4.3-16.5-8.7-33-13-49.5c-6.9-26.4-13.9-52.7-20.8-79.1c-4.2-16.1-8.4-32.2-12.6-48.3
			c-1.2-4.8-2.4-9.7-3.6-14.5c7.6-4.2,15.2-8.5,22.9-12.7c3.9-2.1,4.3-1.9,5.5,2.5c4.4,16,8.7,32.1,13,48.2
			c12.5,46.4,25,92.7,37.6,139.1c0.3,1.2,0.6,2.4,0.9,3.6c0.6,2.1-0.3,3.1-2.3,3.6C238.2,1023.6,229.2,1026.7,219.8,1028.4z"/>
		<path class="st3" d="M-155.7,1043.9c1.6-1.5,3.6-1.8,5.8-1.9c21.3-1.3,42.7-2.6,64-3.9c3.7-0.2,7.5-0.4,11.2-0.6
			c4.9-0.2,9.8-0.5,15.9-0.8c-4.1,7.8-8.7,14.3-12.8,21.2c0.8,2.6,0.1,5-1.2,7.2c-6.3,10.5-12.8,20.9-19.4,31.2
			c-1.6,2.4-3.4,4.9-7,3C-118.1,1080.9-136.9,1062.4-155.7,1043.9z"/>
		<path class="st1" d="M-99.3,1099.4c2.9-0.5,3.8-3,5-5.1c7.6-12.1,15.1-24.2,22.7-36.3c2.4,1.6,2.4,4.2,2.9,6.6
			c3,16.1,6,32.2,9,48.3c0.5,2.4,0.8,4.9,2.7,6.8c-0.8,0.9-1.8,1.1-2.8,0.6C-73,1113.5-86.6,1107.3-99.3,1099.4z"/>
		<path class="st4" d="M-15,1084.6c-0.7-0.4-1.8-0.8-1.1-1.7c1.2-1.4,2.6-2.6,4-3.7c8.1-6.6,15.5-14,23.2-21
			c13.3,1.8,26.8,0.7,40,2.4c2.4,0.3,5-0.1,7.1,1.6C33.9,1069.7,9.5,1077.1-15,1084.6z"/>
		<path class="st5" d="M173.4,1028c3.9,0.3,7.8,0.6,11.7,0.2c2.8-0.3,5.8-0.6,8.2,1.6c-12.5,5.9-25.1,11.8-37.9,17
			c1-2.6,2.8-4.6,5-6.3C165.2,1036.8,169.2,1032.3,173.4,1028z"/>
		<path class="st6" d="M112.1,1031.1c-1,0.8-2.2,1.9-3.6,2.7c-5.2,3.4-10.5,6.6-15.7,10c-4.1,2.7-7.3,2.9-10.4-1.7
			c-3.2-4.9-1.2-7.4,3-9.8c6.1-3.6,11.9-7.4,17.9-11.1c2.6-1.6,4.8-0.8,6.3,1.7C111,1025.2,113.5,1027.4,112.1,1031.1z"/>
		<path class="st7" d="M89.3,905.3c4,0,6.1,1.7,6.3,5.9c0.2,4.1-0.3,7.5-5.3,7.9c-7,0.5-13.9,0.9-20.9,1.4c-5,0.3-6.2-2.9-6.6-7
			c-0.4-4.2,2-6.1,5.7-6.4C75.4,906.4,82.4,905.9,89.3,905.3z"/>
		<path class="st8" d="M119.1,1024.9c-0.6-0.5-1.2-0.9-2-1c-1.7-3.4-6-5.7-4.7-10.4c5.3-5.2,10.8-10.1,15.8-15.6
			c3.6-3.9,6.5-4,10.3-0.5c3.7,3.4,2.9,6.3-0.1,9.4c-5.7,6-11.3,12-17,18C120.7,1025.3,119.9,1025.3,119.1,1024.9z"/>
		<path class="st9" d="M36.1,931.3c-4.9-0.1-6-2.8-6.8-5.6c-0.8-2.5-0.9-5.1,1.9-6.4c7.5-3.5,15.3-6.3,23.4-7.9
			c3.5-0.7,5.2,1.8,6.1,4.8c0.8,2.5,1.3,5.6-1.3,6.7C51.4,926.1,43.1,928.8,36.1,931.3z"/>
		<path class="st10" d="M67.7,1053.2c0.4-1.3,0.8-3.3,1.7-5.2c1-2.2,1.9-5.1,4.9-5c3.5,0.1,6,2.6,7.9,5.3c1.8,2.5-0.1,4.7-1.7,6.6
			c-1.1,1.3-2.2,2.5-3.5,3.5c-2.1,1.6-3.5,5.4-7,3.4C67.1,1060.1,67.5,1056.8,67.7,1053.2z"/>
		<path class="st11" d="M16,939.4c-3.7-0.3-4.4-4.2-4.7-7.8c-0.3-3.5,6.7-7.9,11.2-7.2c4.9,0.8,4.8,5.2,5.3,8.6
			C28.2,936,21.8,939.7,16,939.4z"/>
		<path class="st12" d="M156.9,975.8c-1.3,5.4-2.5,11.1-4.2,16.6c-1,3.3-2.7,6.1-7.1,4.6c-4.2-1.5-7.8-3.2-5.6-8.8
			c2.1-5.4,2.7-11.2,3.2-17c0.4-5.2,2.9-7.2,8.1-6.8c5.9,0.4,6.2,4.2,5.8,8.7C157.1,973.9,157,974.7,156.9,975.8z"/>
		<path class="st13" d="M130.7,921.9c-0.6,4.9-5.3,7.9-10.5,5.9c-5.8-2.2-11.5-4.8-17.3-6.8c-5.4-1.9-5.4-5.6-3.9-10
			c1.4-4.2,4.4-4,8-2.9c7.2,2.2,14.1,4.9,20.7,8.5C129.5,917.6,131.3,918.8,130.7,921.9z"/>
		<path class="st14" d="M137.8,928.4c0.9,0.8,2.2,1.7,3.2,3c4.6,5.8,8.8,11.9,12.2,18.4c1.8,3.5,1.6,6.2-2.4,7.9
			c-3.5,1.4-6.9,3.3-9.4-1.5c-3.3-6.2-7.1-12-11.6-17.4c-1.9-2.3-1.9-4.4,0.4-6.4C132.2,930.6,133.8,927.9,137.8,928.4z"/>
		<path class="st1" d="M122.5,1009.7c0.4,0,0.8-0.1,1.2,0C123.3,1010,122.9,1010.1,122.5,1009.7z"/>
	</g>
	<g>
		<g>
			<path class="st15" d="M-7.9,1038.7l-10.8-73.2l-15,20.2L-51,972.7l24.1-32.4L-58,917.1l12.9-17.4l18.9,14.1l-10.6-72l70.3,53.5
				L3.4,935.8l41,30.5L-7.9,1038.7z M2.8,962.4l3,20.5l8.6-11.9L2.8,962.4z M-7.7,891.2l2.9,19.4l8.2-11L-7.7,891.2z"/>
		</g>
		<g>
			<path class="st16" d="M3,935.5L33.2,895l-58.4-44.4l30.1,169.8l39.3-54.3L3,935.5z M-5.2,910.3L-8,890.9L3,899.3L-5.2,910.3z
				 M5.5,982.6l-3-20.5l11.6,8.6L5.5,982.6z"/>
		</g>
	</g>
</g>
</svg>
