<?xml version="1.0" encoding="utf-8"?>
<!-- Generator: Adobe Illustrator 19.1.0, SVG Export Plug-In . SVG Version: 6.00 Build 0)  -->
<svg version="1.1" id="Layer_1" xmlns="http://www.w3.org/2000/svg" xmlns:xlink="http://www.w3.org/1999/xlink" x="0px" y="0px"
	 viewBox="0 0 570.1 570.1" style="enable-background:new 0 0 570.1 570.1;" xml:space="preserve">
<style type="text/css">
	.st0{fill:#D8D1C9;}
	.st1{fill:#B3857B;}
	.st2{fill:#A1796F;}
	.st3{fill:#8E6B62;}
	.st4{fill:#8F6C62;}
	.st5{fill:#906D63;}
	.st6{fill:#FCB614;}
	.st7{fill:#F7B31F;}
	.st8{fill:#F6B31F;}
	.st9{fill:#F6B31C;}
	.st10{fill:#F8B41D;}
	.st11{fill:#F4B125;}
	.st12{fill:#F3B125;}
	.st13{fill:#F7981D;}
	.st14{fill:#F5B120;}
	.st15{fill:#F5B21F;}
	.st16{fill:#F6B31D;}
</style>
<circle class="st0" cx="285" cy="285" r="285"/>
<g>
	<path class="st1" d="M179.2,116.2c1.3-3.3,3.9-2.3,6.3-1.8c17.4,3.4,34.7,6.7,52.1,10.1c27.1,5.3,54.3,10.6,81.4,15.9
		c3.4,0.7,5,3.3,5.9,6.2c8.2,27.2,19.3,53.5,26.8,81c3,11.2,8.4,21.8,12.2,32.9c7.1,20.8,14.1,41.6,20.9,62.4c1.3,2.3,1.8,5,2.4,7.5
		c7.4,18.5,12.4,37.8,19.7,56.3c1.1,2.9,1.3,5.8,0.6,8.8c-1.4,1.9-3.5,1.6-5.5,1.6c-12.7,0.5-25.3,0.9-38,1.4
		c-13.7,0.5-27.3,1-41,1.4c-2.5,0.1-4.9,0.6-7.3,1.3c-14.8,2-29.7,3.2-44.6,3.7c-4,0.1-8,0.4-11.8-1.2c-3.4-1.8-4.5-5-5.5-8.4
		c-7.5-26.3-14.3-52.8-21.7-79.1c-0.9-3.3-2-6.8-0.3-10.2c5-5.4,12-5.3,18.5-6.8c7.8-1.8,8.2-2.4,3-8.6c-7.2-8.6-14.3-17.3-21.4-26
		c-4.2-5.1-4.7-10.2-2.4-16c5.1-13,9.2-26.4,13.1-39.8c2.4-8.2,1.9-8.7-6.4-6.8c-3.2,0.7-6.3,1.5-9.5,2c-5.7,0.9-9.5,3.4-10.3,9.9
		c-0.4,3.4-1.4,7.6-6.4,8.1c-4-3-5.4-7.6-6.6-12c-7.6-28.3-15.3-56.6-23.1-84.9C179.4,122,180.4,119,179.2,116.2z"/>
	<path class="st2" d="M233.2,305.9c5.5,20.4,10.9,40.8,16.4,61.2c3.1,11.5,6.2,23,9.2,34.5c1.8,4.2-1.5,6.4-3.7,8.9
		c-7.7,9.1-16.1,17.5-24.7,25.7c-4.3,2.1-7.7,5.2-10.9,8.7c-11.8,12.7-23.1,25.9-35.5,38c-5.7-0.6-6.8-5.1-7.9-9.4
		c-5.5-20.2-12.3-40-16.7-60.5c-0.1-0.5-0.5-0.8-0.8-1.3c-1.7-5.2,1.6-9.1,3.4-13.4c1.3-3,3.3-5.6,4.1-9.5
		c-4.4-1.8-10.1,2.3-13.9-2.3c-6.1-12.7-8.7-26.5-12.6-39.9c-12-41.2-23.8-82.4-35.5-123.7c-1.2-4.3-1.8-8.3,1.5-11.9
		c17.8-23.2,35.6-46.4,53.5-69.5c6.6-8.5,13.3-16.9,20-25.3c2.8,0.6,3,3,3.6,5.2c3.9,14.2,7.7,28.4,11.8,42.5
		c5.5,19.1,9.6,38.7,16.1,57.5c1,0.8,1.1,1.8,0.7,2.9c-5.4,3.5-8.3-0.7-10-4.2c-4.1-8.3-10-8.9-17.9-6.4c-6.4,2-13.1,3.1-19.7,4.5
		c-5.3,1.1-4.7,2.9-2,6.3c9.7,12,20,23.6,30.8,34.6c6,6.1,7.7,11.9,4.9,20.1c-3.2,9.4-6,19-9.6,28.3c-1.5,3.9-1.1,5.1,3.8,4.7
		c9.9-1,16-5.5,18.3-15.4c0.9-3.8,2-8.4,6.9-8.9c5.2-0.5,8.2,3.2,10.3,7.4c1.6,3.2,4.5,5.4,6,8.5
		C233.3,304.5,233.3,305.2,233.2,305.9z"/>
	<path class="st1" d="M105.8,211c0,8.9,3.5,17.1,5.8,25.5c8.8,31.5,18,62.9,27.1,94.4c4,13.9,8.1,27.8,12.1,41.8
		c1.3,4.6,3,9,2.9,13.9c-1.2,3.2-3.9,4.2-7,4.7c-25.5,4-51,7.7-76.5,11.9c-4.2,0.7-8.4-0.2-12.7,0c-2.6-2.2-2.2-5.5-2.5-8.3
		c-3.3-29.8-6.4-59.6-9.6-89.4c-3-28.3-6.1-56.6-9.1-84.9c-0.7-6.5-0.5-6.5,6-6.7c18.5-0.5,37-0.9,55.4-1.4
		C100.5,212.4,103.3,212.6,105.8,211z"/>
	<path class="st2" d="M407.5,395.6c-4.1-5.2-5.3-11.7-7.5-17.7c-5.3-14.4-10-29.1-14.9-43.6c-0.4-1.2-0.7-2.4,0.2-3.5
		c0.4-0.4,0.8-0.6,1.3-0.7c0.9-0.2,0.4-1.1,0.6-1.7c0.8-3.8,4.4-6,5.4-9.8c-4,1.3-5,7.9-10.7,6.1c-8.1-23.6-16.1-47.3-24.2-70.9
		c-1-2.8-2-5.6-3-8.5c-11.9-35-23.8-70-35.7-105c15.8-11.3,31.3-23.2,47.9-33.5c4.3,2,5.8,5.8,7.3,9.9c11.9,33.7,23,67.6,34.8,101.4
		c14,40.1,27.3,80.4,41.4,120.5c0.9,2.6,1.9,5.2,1.4,8c-1.5,7.2-6.4,12.1-11.8,16.4c-3.4,2.8-6.9,5.5-9.9,8.8
		c-6.5,5-11.3,11.8-17,17.7C411.3,391.6,409.4,393.6,407.5,395.6z"/>
	<path class="st1" d="M449.6,347.6c-6.9-20.3-13.8-40.6-20.7-60.9c-1.8-5.2-3.7-10.3-5.5-15.5c-10.1-29.3-20.2-58.5-30.2-87.8
		c-8.7-25.5-16.9-51.2-26.3-76.4c3-0.8,5.8,0.4,8.7,1.1c16.2,3.7,32.4,7.5,48.5,11.3c4.7,1.7,5.7,6.2,7.1,10
		c14.5,40.4,29.3,80.7,44,121.1c9.3,25.6,18.5,51.2,27.9,76.7c1.8,4.9,5.5,9.9,2,15.7c-5.3,1.5-10.8,1.5-16.2,1.8
		c-5.2,0.3-10.4,0.8-15.3,2.8c-4,0-7.5,1.7-11.3,2.5C457.9,350.9,453.1,352.1,449.6,347.6z"/>
	<path class="st2" d="M505.1,342.8c-7-19.3-14-38.5-21-57.8c-11.2-30.8-22.5-61.5-33.7-92.3c-6.8-18.8-13.6-37.6-20.4-56.4
		c-2-5.6-4-11.3-5.9-17c8.7-5.9,17.3-11.9,26-17.7c4.4-2.9,4.9-2.8,6.8,2.3c7.1,18.7,14,37.5,21,56.2
		c20.1,54.1,40.3,108.2,60.4,162.3c0.5,1.4,1,2.8,1.5,4.2c0.9,2.4,0,3.7-2.3,4.5C526.7,335,516.2,339.8,505.1,342.8z"/>
	<path class="st3" d="M57.5,403.1c1.8-2,4.2-2.6,6.7-2.9c25.4-3.9,50.8-7.8,76.2-11.7c4.4-0.7,8.9-1.3,13.3-1.9
		c5.9-0.8,11.7-1.7,19-2.7c-4,9.8-8.9,18.1-12.9,26.8c1.2,3,0.7,6-0.7,8.7c-6.4,13.3-13,26.4-19.8,39.5c-1.6,3.1-3.6,6.3-8.1,4.4
		C106.7,443.2,82.1,423.1,57.5,403.1z"/>
	<path class="st1" d="M131.2,463.2c3.4-0.9,4.2-4,5.5-6.6c7.7-15.3,15.4-30.7,23.1-46c3,1.7,3.4,4.8,4.2,7.6
		c5.4,18.9,10.7,37.9,16.1,56.8c0.8,2.9,1.5,5.8,4,7.9c-0.9,1.2-2.1,1.5-3.3,1C164.2,477.2,147.2,471.3,131.2,463.2z"/>
	<path class="st4" d="M230.4,436.2c-0.9-0.4-2.3-0.8-1.5-1.9c1.2-1.8,2.9-3.4,4.4-4.9c9-8.8,17-18.5,25.5-27.7
		c16.1,0.7,32.1-2.2,48.2-1.5c2.9,0.1,6-0.6,8.7,1.2C287.3,412.9,258.9,424.6,230.4,436.2z"/>
	<path class="st5" d="M449.6,347.6c4.7-0.1,9.4-0.2,14-1.1c3.3-0.7,6.9-1.3,10,1c-14.4,8.4-28.7,16.9-43.5,24.5
		c0.9-3.2,2.9-5.8,5.3-8C440.8,359,445,353.2,449.6,347.6z"/>
	<path class="st6" d="M210.6,224.4c0-1,0-2,0-3c2.2-4.3,2.8-9,3.7-13.7c0.6-3.1,2.2-4.8,5.3-5.5c9.5-2,19-4.1,28.4-6.2
		c2.2,2.5,0.5,4.6-0.1,6.5c-4.5,15.9-9.3,31.7-15.1,47.1c-2.1,5.4-1.9,9.4,2.3,14.1c9,10,17.3,20.7,25.9,31.1c0.9,1.1,2.3,2,2.5,4.5
		c-9.8,2.7-19.9,5.1-30.2,6.6c0.1-0.2,0.1-0.5,0.2-0.7c-5.3-6.8-8-14.7-10.4-22.9c-4.6-16-9.7-31.9-14.2-47.9
		C207.8,230.8,206.4,227.1,210.6,224.4z"/>
	<path class="st7" d="M373.9,347.8c-0.4,0.6-0.9,1.5-1.5,2.2c-2.4,2.9-4.8,5.7-7.1,8.6c-1.8,2.3-3.6,3-6.2,0.9
		c-2.8-2.2-2.1-4-0.1-6.2c2.8-3.2,5.4-6.5,8.2-9.7c1.2-1.4,2.6-1.4,3.9-0.2C372.2,344.6,374,345.3,373.9,347.8z"/>
	<path class="st8" d="M330.2,223c2.4-0.2,3.7,0.7,4.1,3.2c0.3,2.5,0.2,4.5-2.8,5c-4.1,0.7-8.3,1.3-12.4,2c-3,0.5-3.9-1.4-4.3-3.8
		c-0.5-2.5,0.9-3.7,3.1-4.2C321.9,224.4,326.1,223.7,330.2,223z"/>
	<path class="st9" d="M386.6,331.3c-0.4-0.3-0.8-0.4-1.3-0.5c-1.2-2-3.9-3.1-3.4-6c2.9-3.4,5.9-6.7,8.6-10.2
		c1.9-2.6,3.7-2.8,6.2-0.8c2.4,1.8,2.1,3.6,0.5,5.7c-3.1,3.9-6.1,7.8-9.2,11.7C387.6,331.5,387.1,331.5,386.6,331.3z"/>
	<path class="st10" d="M281.2,243.8c-3-0.1-3.6-1.7-4.1-3.4c-0.4-1.5-0.5-3.1,1.2-3.8c4.5-2.1,9.2-3.7,14.1-4.6
		c2.1-0.4,3.1,1.1,3.7,2.9c0.4,1.5,0.7,3.4-0.8,4C290.4,240.7,285.4,242.3,281.2,243.8z"/>
	<path class="st11" d="M341.3,380.4c0.2-0.8,0.3-2,0.7-3.2c0.5-1.3,0.9-3.1,2.6-3.2c2.1-0.1,3.8,1.2,5,2.7c1.2,1.4,0.2,2.8-0.7,4
		c-0.6,0.8-1.2,1.6-1.9,2.3c-1.2,1.1-1.8,3.4-4,2.4C341.3,384.6,341.4,382.6,341.3,380.4z"/>
	<path class="st12" d="M253.1,254.3c-2.2,0-2.9-2.2-3.3-4.4c-0.4-2,3.6-5.1,6.3-4.9c3,0.2,3.1,2.8,3.6,4.9
		C260.2,251.6,256.6,254.1,253.1,254.3z"/>
	<path class="st13" d="M210.6,224.4c-0.4,7.7,3.2,14.4,5.2,21.5c5.4,18.9,11.4,37.6,17.1,56.3c0.3,0.9,0.3,2,0.5,2.9
		c-6.3-4.1-10-11-16.6-15.9c-3.4,5.5-4.8,11.3-6.7,16.8c-1.4,4.3-3.7,6.6-8.3,7.3c-6.5,1-13,2.7-19.5,4.1c-1-3.4,0.6-5.6,1.3-7.9
		c3.8-11.6,7.6-23.3,11.6-34.8c1.5-4.3,0.7-7.3-2.5-10.6c-12.7-13.1-24.7-26.8-36.5-40.7c-1.4-1.7-3.4-3-3.6-5.5
		c1.4-1.8,3.5-1.7,5.4-2.1c10.9-2.5,22-4.7,32.9-7.3c4.4-1.1,7.1,0,9.1,4c1.6,3.1,3.7,5.9,5.6,8.8C207,223,208.2,224.7,210.6,224.4z
		"/>
	<path class="st14" d="M411.7,283.4c-0.5,3.3-0.9,6.8-1.6,10.2c-0.4,2.1-1.3,3.8-4,3.1c-2.6-0.7-4.8-1.5-3.9-5c1-3.4,1-6.9,1-10.3
		c0-3.1,1.4-4.4,4.5-4.5c3.6-0.1,4,2.2,4,4.9C411.7,282.2,411.7,282.7,411.7,283.4z"/>
	<path class="st15" d="M373.6,230.6c-0.1,3-2.7,5-5.9,4.1c-3.6-1-7.1-2.2-10.8-3.1c-3.3-0.8-3.5-3.1-2.9-5.8
		c0.6-2.6,2.4-2.6,4.7-2.2c4.4,0.9,8.7,2.2,12.9,3.9C372.6,228.1,373.7,228.7,373.6,230.6z"/>
	<path class="st16" d="M392.6,241.3c0.6,0.4,1.4,0.9,2.1,1.6c3.1,3.2,5.9,6.6,8.3,10.4c1.3,2,1.3,3.6-1,4.8c-2,1.1-3.9,2.4-5.7-0.4
		c-2.3-3.5-4.9-6.8-7.9-9.7c-1.3-1.3-1.4-2.6-0.1-3.9C389.4,242.9,390.2,241.2,392.6,241.3z"/>
	<path class="st1" d="M386.6,331.3c0.5-0.1,0.9-0.2,1.4-0.2C387.6,331.6,387.1,331.7,386.6,331.3z"/>
</g>
</svg>
