<?xml version="1.0" encoding="utf-8"?>
<!-- Generator: Adobe Illustrator 19.1.0, SVG Export Plug-In . SVG Version: 6.00 Build 0)  -->
<svg version="1.1" id="Layer_1" xmlns="http://www.w3.org/2000/svg" xmlns:xlink="http://www.w3.org/1999/xlink" x="0px" y="0px"
	 viewBox="0 0 570.1 570.1" style="enable-background:new 0 0 570.1 570.1;" xml:space="preserve">
<style type="text/css">
	.st0{fill:#D8D1C9;}
	.st1{fill:#A1796F;}
	.st2{fill:#FFFFFF;}
	.st3{fill:#F68B00;}
</style>
<circle class="st0" cx="285" cy="285" r="285"/>
<g>
	<circle class="st1" cx="285" cy="285" r="206"/>
	<path class="st2" d="M406,257.4c3.2-7.9,5-16.5,5-25.6c0-37.8-30.8-68.5-68.9-68.5c-18.6,0-35.4,7.3-47.8,19.2
		c-14.4-5.4-30.3-8.5-47.1-8.5c-63.8,0-115.5,43.6-115.5,97.4c0,53.8,51.7,97.4,115.5,97.4c7.4,0,14.7-0.6,21.7-1.8
		c25.1,17.5,80.5,54.2,80.5,54.2l-18.9-49.5c6,1.5,12.3,2.4,18.9,2.4c41.1,0,74.4-31.7,74.4-70.8C423.8,285.8,417.1,269.7,406,257.4
		z"/>
	<g>
		<path class="st3" d="M248.3,251.7c-7,0-12.4-5-12.4-12.1c0-14.3,14.3-31.5,40.1-31.5c17.2,0,41,11.4,41,31.2
			c0,10.1-6.3,18.1-18.6,22.7c-17.1,6.5-7.3,19.2-23.4,19.2c-6.8,0-11.1-4.1-11.1-10.9c0-14.1,14.3-21.6,14.3-35.8
			c0-3.5-1.5-8.5-5.8-8.5c-4.6,0-5,4.5-5.3,8C265.9,244.7,259.4,251.7,248.3,251.7z M273.7,329c-10.1,0-18.4-8.3-18.4-18.4
			c0-10.1,8.3-18.4,18.4-18.4c10.1,0,18.4,8.3,18.4,18.4C292.1,320.7,283.8,329,273.7,329z"/>
	</g>
</g>
</svg>
