<?xml version="1.0" encoding="utf-8"?>
<!-- Generator: Adobe Illustrator 19.1.0, SVG Export Plug-In . SVG Version: 6.00 Build 0)  -->
<svg version="1.1" id="Layer_1" xmlns="http://www.w3.org/2000/svg" xmlns:xlink="http://www.w3.org/1999/xlink" x="0px" y="0px"
	 viewBox="-254 675.9 570.1 570.1" style="enable-background:new -254 675.9 570.1 570.1;" xml:space="preserve">
<style type="text/css">
	.st0{fill:#D8D1C9;}
	.st1{fill:#A1796F;}
	.st2{fill:#FFFFFF;}
	.st3{fill:#F68B00;}
</style>
<circle class="st0" cx="31" cy="960.9" r="285"/>
<g>
	<circle class="st1" cx="31" cy="960.9" r="164.8"/>
	<path class="st2" d="M127.8,938.8c2.6-6.3,4-13.2,4-20.5c0-30.2-24.6-54.8-55.1-54.8c-14.9,0-28.3,5.8-38.2,15.4
		c-11.5-4.3-24.2-6.8-37.7-6.8c-51,0-92.4,34.9-92.4,77.9c0,43,41.4,77.9,92.4,77.9c5.9,0,11.8-0.5,17.4-1.4
		c20.1,14,64.4,43.4,64.4,43.4l-15.1-39.6c4.8,1.2,9.8,1.9,15.1,1.9c32.9,0,59.5-25.4,59.5-56.6C142,961.5,136.7,948.7,127.8,938.8z
		"/>
	<g>
		<path class="st3" d="M1.6,934.3c-5.6,0-9.9-4-9.9-9.7c0-11.4,11.4-25.2,32.1-25.2c13.8,0,32.8,9.1,32.8,25c0,8.1-5,14.5-14.9,18.2
			c-13.7,5.2-5.8,15.4-18.7,15.4c-5.4,0-8.9-3.3-8.9-8.7c0-11.3,11.4-17.3,11.4-28.6c0-2.8-1.2-6.8-4.6-6.8c-3.7,0-4,3.6-4.2,6.4
			C15.7,928.7,10.5,934.3,1.6,934.3z M22,996.1c-8.1,0-14.7-6.6-14.7-14.7c0-8.1,6.6-14.7,14.7-14.7s14.7,6.6,14.7,14.7
			C36.7,989.5,30,996.1,22,996.1z"/>
	</g>
</g>
</svg>
