<?xml version="1.0" encoding="utf-8"?>
<!-- Generator: Adobe Illustrator 19.1.0, SVG Export Plug-In . SVG Version: 6.00 Build 0)  -->
<svg version="1.1" id="Layer_1" xmlns="http://www.w3.org/2000/svg" xmlns:xlink="http://www.w3.org/1999/xlink" x="0px" y="0px"
	 viewBox="0 0 570.1 570.1" style="enable-background:new 0 0 570.1 570.1;" xml:space="preserve">
<style type="text/css">
	.st0{fill:#D8D1C9;}
	.st1{fill:#B3857B;}
	.st2{fill:#9D766C;}
	.st3{fill:#FFE4C0;}
	.st4{fill:#F7981D;}
	.st5{fill:#B3867B;}
	.st6{fill:#9E776C;}
	.st7{fill:#F69820;}
	.st8{fill:#926E63;}
	.st9{fill:#FAAC4F;}
	.st10{fill:#FAAC4D;}
	.st11{fill:#FAB159;}
	.st12{fill:#FBBB6E;}
	.st13{fill:#FCB614;}
</style>
<circle class="st0" cx="285" cy="285" r="285"/>
<g>
	<path class="st1" d="M418.8,302.7c0.5-3.1,1.1-6.2,1.6-9.3c1.1-6.9,1-7,7.9-7c15.8,0,31.7,0,47.5,0c6.6,0,13.1,0.1,19.7,0.2
		c5,8.1,3.3,16.4,0.9,24.8c-1.4,6.3-0.9,12.7-0.6,19c1,21.2-7.4,38.5-21.2,53.7c-16.7,18.5-37.5,31.5-59.7,42.5
		c-23.6,11.6-23.7,11.5-50.2,11.5c-73.9,0-147.8,0-221.7,0c-2.7,0-5.4,0.6-8-0.5c-0.1-0.3-0.3-0.6-0.2-0.8c6.2-9,3.2-16.7-3.3-23.9
		c-3.1-3.4-6.7-6.1-10.4-8.8c-2.7-2-5.5-2.8-8.9-2.9c-8-0.1-15.9-0.2-23.9-0.7c-5.7-0.4-6.1-0.9-6.7-6.5
		c-1.5-13.8-2.9-27.6-4.3-41.3c-1.2-11.7-2.4-23.5-3.6-35.2c-0.6-5.8-0.5-6,5.7-6.1c6.8-0.1,13.7-0.3,20.5,0.1
		c3.8,0.2,6-1.3,7.3-4.6c10.4,1.9,20.9,0.9,31.3,1.1c6.6,0.1,13.2,0,19.8,0c13,0.1,13.5,0.4,15.6,13.4c1.1,7.2,2.3,14.3,5.1,21.1
		c2.9,7.2,0.4,10.9-7.5,11.1c-21.6,0.5-43.2,0.1-64.8,0.2c-2.9,0-5.9-0.2-9.9,0.7c3.5,1.6,6.2,1.2,8.7,1.2c22.3,0,44.6,0.4,66.9-0.1
		c9-0.2,16.4,2.1,22.9,8.2c2.9,2.7,6.3,6.6,10.6,4.4c3.7-1.9,2-6.6,2-10.1c0.1-29.3,0-58.7,0.1-88c0-3.8-0.7-7.9,3-10.7
		c2.2,2.3,1.2,5.2,1.2,7.8c0.1,33.4,0,66.9,0.1,100.3c0,2.9-0.3,5.9,0.6,8.8c-2.6,4.6-7.2,3.3-11,3.3c-31.4,0.2-62.8,0.1-94.1,0.1
		c-2.9,0-5.9-0.4-8.8,1.2c115.3,0.7,230.6,0.7,346,0.1c-2.7-1.7-5.6-1.3-8.4-1.3c-32.3,0-64.6,0-96.9-0.1c-4,0-8.2,0.9-11.9-1.8
		c-0.8-1.1-1.6-2.3,0.7-2.6c8.6-1.1,14.7-6.4,20.3-12.5c1.5-1.7,2.9-3.5,4.3-5.2c4.3-1.6,8.8-1.8,13.4-1.8c30.9,0,61.9,0,92.8,0
		c2.6,0,5.3,0.3,8.5-0.9c-3.6-1.5-6.6-1-9.5-1c-30.3-0.1-60.5,0.1-90.8-0.1c-3.7,0-7.9,1.1-10.5-3.1c1.4-4.1,3-8.1,4.1-12.2
		c0.8-3,2.4-4,5.3-4c6.8,0.1,13.6,0,20.4,0c3,0,5.9,0,8.5-1.6c21.8-3.6,43.8-0.8,65.8-1.8c3-0.1,6.3,0.8,9.5-1.5
		c-2.3-2.4-5.1-1.7-7.6-1.7c-16.3-0.1-32.6,0.1-49-0.1c-3.3,0-7,0.7-9.1-3c3.2-4.1,6.3-8.2,9.5-12.3c2.8-2.8,6.4-3.1,10.1-3.1
		c12.7-0.1,25.4,0,38.1,0c2.6,0,5.4,0.4,8.3-1.3c-2.4-2.7-5.3-1.9-7.8-1.9c-12-0.1-24,0.1-36-0.1
		C424.2,305.7,420.8,306.1,418.8,302.7z"/>
	<path class="st2" d="M211.2,259.2c0,35,0,70,0,105.1c0,1.8,0.1,3.6,0,5.5c-0.2,5.1-1.1,5.6-5.7,3.8c-6.5-2.5-11.9-6.7-16.9-11.3
		c-3.2-2.9-6.5-3.7-10.5-3.6c-26.1,0.1-52.3,0-78.4,0c-2,0-4.1,0-6.1-0.1c-2.5-0.1-3.5-1.7-3.5-4.1c0-2.5,1.3-3.8,3.7-3.9
		c1.8-0.1,3.6-0.1,5.5-0.1c23.9,0,47.8,0,71.6,0c8.3,0,8.6-0.4,5.2-7.9c-3.6-7.8-4.3-16.2-5.4-24.5c-1-7.1-0.8-7.2-8.3-7.2
		c-16.1,0-32.3,0-48.4,0c-3.1,0-6.1,0-6.3-4.2c4.1-14.6,8.3-29.1,12.2-43.8c1-3.9,3.5-4.1,6.6-4.1c18.1,0.1,36.2,0,54.4,0.1
		C190.9,259,201.1,258.4,211.2,259.2z"/>
	<path class="st2" d="M327.1,376.2c2.5,0.1,5,0.2,7.5,0.2c36.8,0,73.6,0,110.5,0c2,0,4.1,0,6.1,0.2c2.2,0.2,3,1.7,3,3.8
		c0,2-0.6,3.6-2.9,4c-1.6,0.2-3.2,0.2-4.8,0.2c-116.4,0-232.7,0-349.1,0c-1.4,0-2.7,0-4.1-0.1c-2.6-0.2-3.5-1.8-3.4-4.2
		c0-2.1,1-3.5,3.2-3.7c2-0.2,4.1-0.2,6.1-0.2c34.8,0,69.6,0,104.3,0c3.2,0,6.4-0.2,9.5-0.3c13.9,0,27.7,0,41.6-0.1
		c5.9,0,6.1-0.1,6.2-6.2c0.5-17.5,0.8-35,1.2-52.5c0.9-40.2,1.8-80.4,2.8-120.6c0.2-10.2,0.7-20.4,1.1-30.6
		c1.5-15.9,0.6-31.9,1-47.8c0-9.8-0.1-19.5,0-29.3c0.1-5.2,0.6-5.4,6-3.3c5,6.4,2.5,12.8-0.1,19.1c-0.3,16.9-1.8,13.4,13.1,13.8
		c4.5,0.1,9-0.1,13.6,0c4.8,0.1,5.1,0.6,3,5.2c-2.8,6.2-5.8,12.3-8.6,18.4c-1.2,2.6-2.8,3.9-5.7,3.7c-3.4-0.2-6.8-0.1-10.2,0
		c-5.7,0.1-5.7,0.1-5.5,6.2c0.6,1.2,1.1,2.4,1.5,3.6c1.5,16.5,2.8,33,3,49.6c0.3,38.8,2.3,77.6,3.2,116.4
		c0.3,11.7-1.1,23.5,0.6,35.3c0.4,2.5-0.7,4.9-1.4,7.3c-2.2,7.3,0.8,11.3,8.3,11.3c12.2,0,24.4,0.1,36.6-0.5
		C325.5,375.3,326.3,375.7,327.1,376.2z"/>
	<path class="st3" d="M327.1,376.2c-13.8,0-27.7,0-41.5-0.1c-6.7,0-6.8-0.1-7-6.9c-0.6-23.4-1.2-46.7-1.8-70.1
		c-1.3-45.4-2.7-90.8-4-136.1c-0.1-2.7,0-5.4,0.1-8.2c2.3,0.2,2.9,2.2,4.1,3.6c10.9,18.3,14.8,38.8,19.2,59.2
		c4.9,22.3,5.3,45.1,4,67.7c-1.2,20.1-3.9,40.2-14.3,58.2c-0.9,2.3-3.3,4.1-2.2,7c1.7,5.2,2.1,10-2.4,14.4c-2.8,2.8,0.3,9.8,4.4,9.9
		c7.6,0.1,15.4,1.8,22.9-1.3c1.4-0.6,2.5-0.6,3.8,0.1c3.9,2.1,7.8,2,11.6-0.3c2.1-1.3,3.9-0.8,4.8,1.7
		C328.2,375.5,327.6,375.9,327.1,376.2z"/>
	<path class="st4" d="M283.6,345c12-30.6,15.8-62.4,13.5-95c-2.1-29.7-9-58.3-19.7-86c-0.7-1.9-1.4-3.8-2.1-5.7
		c-0.4-1.5,0.3-1.9,1.6-1.6c17.1,19,30,40.4,36.5,65.3c7.9,30.1,4.5,59.4-7.1,88c-5.5,13.5-12.5,26.2-21.5,37.8
		C282.4,347.8,282.9,346.4,283.6,345z"/>
	<path class="st2" d="M357.3,350.5c36.4,0,72.7,0,109.1,0c2,0,4.1,0,6.1,0.1c2.5,0.1,3.5,1.7,3.5,4.1c0,2.5-1.3,3.8-3.7,3.9
		c-1.8,0.1-3.6,0.1-5.5,0.1c-35,0-70,0-105,0c-2.9,0-6,0.7-8.6-1.3C354.6,355,356,352.8,357.3,350.5z"/>
	<path class="st4" d="M273,104.9c-0.4-6.4-0.5-12.8,0.1-19.1c1.4-1.1,2.8-2.3,4.2-3.4c6.8-4.8,13.8-5,21-0.8
		c2.6,1.5,4.8,3.4,6.9,5.5c7.4,7.2,15.8,10.3,26,6.6c1.5-0.4,1.9,0.2,1.6,1.6c-12.5,10.9-27.1,11.7-42.4,8.8
		c-1.8-0.3-3.6-0.8-5.3-1.4C280.6,101.1,276.6,101.6,273,104.9z"/>
	<path class="st5" d="M267.1,118.4c2.8,0.8,2.9,3.1,2.9,5.4c0,5.6,1.1,11.5-0.2,16.8c-2.2,8.5-1.7,17.2-3.7,25.6
		c0-5.2-0.2-10.4-0.1-15.6c0.1-3.1-1-4.7-4.3-4.6c-3.4,0.1-6.8-0.1-10.2,0c-2.9,0.1-4.6-1.1-5.8-3.7c-2.9-6.4-6-12.7-8.8-19.1
		c-1.6-3.5-1-4.3,3.1-4.5C249,118.5,258,118.5,267.1,118.4z"/>
	<path class="st6" d="M405.2,324.6c21.1,0,42.2,0,63.3,0c1.6,0,3.2,0,4.8,0.1c3.3,0,4.2,2,4.2,4.9c0,2.7-1,4.4-3.9,4.5
		c-1.6,0.1-3.2,0.1-4.8,0.1c-21.8,0-43.6,0-65.4,0c-2.7,0-5.5,0.6-7.9-1.4C398.8,330,402,327.3,405.2,324.6z"/>
	<path class="st6" d="M418.8,302.7c17.4,0,34.9,0,52.3,0c5.4,0,6.7,1.3,6.3,5.5c-0.3,3.3-1.2,4-6.4,4c-14.3,0.1-28.5,0-42.8,0
		c-4.5,0-9.1,0-13.6,0C416.1,309.1,417.5,305.9,418.8,302.7z"/>
	<path class="st7" d="M496.4,311.4c-1.8-5.7-0.5-11.6-0.8-17.4c-0.1-2.5-0.1-4.9-0.1-7.4c3.2-0.4,6.4-0.4,9.6,0c4,4,2.7,8,0.2,12.1
		c-0.1,2.5-0.1,4.9-0.2,7.4c-0.2,5-0.2,5-5.3,5.3C498.6,311.4,497.5,311.4,496.4,311.4z"/>
	<path class="st8" d="M505.3,298.7c-0.1-4-0.1-8.1-0.2-12.1c7.2-0.1,14.4-0.2,21.6-0.2c1.7,0,3.8-0.5,4,2.3c0.1,2.4-1.6,2.9-3.4,3.5
		C520,294.4,512.6,296.5,505.3,298.7z"/>
	<path class="st9" d="M332.8,95.2c-0.5-0.5-1-1.1-1.6-1.6c2.2-1.6,4.3-3.3,7.1-3.8l-0.1-0.1C337.2,92.4,335.2,94,332.8,95.2z"/>
	<path class="st10" d="M283.6,345c0.4,0.9,0.9,1.8,1.3,2.7c-0.4,0.9-0.8,1.9-1.2,2.8c-0.9,0.1-2.7,2.2-2.4-0.7
		C281.5,348.1,282.2,346.3,283.6,345z"/>
	<path class="st11" d="M276.9,156.6c-0.5,0.5-1.1,1.1-1.6,1.6c-0.8-1.1-1.7-2.2-2.5-3.3c0-0.9,0-1.7,0-2.6
		C274.5,153.4,276.1,154.6,276.9,156.6z"/>
	<path class="st12" d="M338.3,89.8c0.1-0.2,0.2-0.5,0.2-0.5C338.9,89.4,338.8,89.6,338.3,89.8C338.2,89.7,338.3,89.8,338.3,89.8z"/>
	<path class="st2" d="M271.3,407.9c-40,0-80.1,0-120.1,0c-2,0-4.1,0-6.1-0.2c-2.2-0.2-3.1-1.5-3.2-3.7c-0.1-2.4,0.8-4,3.4-4.2
		c1.8-0.1,3.6-0.1,5.5-0.1c80.5,0,161.1,0,241.6,0c1.8,0,3.6,0,5.5,0.2c2.2,0.2,3.1,1.6,3.2,3.7c0.1,2.4-0.8,4-3.4,4.2
		c-2,0.1-4.1,0.1-6.1,0.1C351.4,407.9,311.3,407.9,271.3,407.9z"/>
	<path class="st4" d="M160.3,286.6c0.1,6.7-5.8,12.7-12.5,12.8c-7.3,0.2-13.1-5.5-13.1-12.8c0-7.1,5.3-12.5,12.4-12.7
		C154.4,273.8,160.2,279.4,160.3,286.6z"/>
	<path class="st13" d="M197.9,286.3c0.1,7.4-5.3,13.1-12.6,13.1c-7,0-12.5-5.3-12.6-12.4c-0.2-7.5,5.2-13,12.6-13
		C192.4,273.9,197.8,279.1,197.9,286.3z"/>
</g>
</svg>
