<?xml version="1.0" encoding="utf-8"?>
<!-- Generator: Adobe Illustrator 19.1.0, SVG Export Plug-In . SVG Version: 6.00 Build 0)  -->
<svg version="1.1" id="Layer_1" xmlns="http://www.w3.org/2000/svg" xmlns:xlink="http://www.w3.org/1999/xlink" x="0px" y="0px"
	 viewBox="-254 675.9 570.1 570.1" style="enable-background:new -254 675.9 570.1 570.1;" xml:space="preserve">
<style type="text/css">
	.st0{fill:#D8D1C9;}
	.st1{fill:#B3857B;}
	.st2{fill:#9D766C;}
	.st3{fill:#FFE4C0;}
	.st4{fill:#F7981D;}
	.st5{fill:#B3867B;}
	.st6{fill:#9E776C;}
	.st7{fill:#F69820;}
	.st8{fill:#926E63;}
	.st9{fill:#FAAC4F;}
	.st10{fill:#FAAC4D;}
	.st11{fill:#FAB159;}
	.st12{fill:#FBBB6E;}
	.st13{fill:#FCB614;}
</style>
<circle class="st0" cx="31" cy="960.9" r="285"/>
<g>
	<path class="st1" d="M141.5,969.7c0.4-2.5,0.9-5,1.3-7.4c0.9-5.5,0.8-5.6,6.3-5.6c12.6,0,25.4,0,38,0c5.3,0,10.5,0.1,15.8,0.2
		c4,6.5,2.6,13.1,0.7,19.8c-1.1,5-0.7,10.2-0.5,15.2c0.8,17-5.9,30.8-17,43c-13.4,14.8-30,25.2-47.8,34c-18.9,9.3-19,9.2-40.2,9.2
		c-59.1,0-118.2,0-177.4,0c-2.2,0-4.3,0.5-6.4-0.4c-0.1-0.2-0.2-0.5-0.2-0.6c5-7.2,2.6-13.4-2.6-19.1c-2.5-2.7-5.4-4.9-8.3-7
		c-2.2-1.6-4.4-2.2-7.1-2.3c-6.4-0.1-12.7-0.2-19.1-0.6c-4.6-0.3-4.9-0.7-5.4-5.2c-1.2-11-2.3-22.1-3.4-33c-1-9.4-1.9-18.8-2.9-28.2
		c-0.5-4.6-0.4-4.8,4.6-4.9c5.4-0.1,11-0.2,16.4,0.1c3,0.2,4.8-1,5.8-3.7c8.3,1.5,16.7,0.7,25,0.9c5.3,0.1,10.6,0,15.8,0
		c10.4,0.1,10.8,0.3,12.5,10.7c0.9,5.8,1.8,11.4,4.1,16.9c2.3,5.8,0.3,8.7-6,8.9c-17.3,0.4-34.6,0.1-51.8,0.2
		c-2.3,0-4.7-0.2-7.9,0.6c2.8,1.3,5,1,7,1c17.8,0,35.7,0.3,53.5-0.1c7.2-0.2,13.1,1.7,18.3,6.6c2.3,2.2,5,5.3,8.5,3.5
		c3-1.5,1.6-5.3,1.6-8.1c0.1-23.4,0-47,0.1-70.4c0-3-0.6-6.3,2.4-8.6c1.8,1.8,1,4.2,1,6.2c0.1,26.7,0,53.5,0.1,80.2
		c0,2.3-0.2,4.7,0.5,7c-2.1,3.7-5.8,2.6-8.8,2.6c-25.1,0.2-50.2,0.1-75.3,0.1c-2.3,0-4.7-0.3-7,1c92.2,0.6,184.5,0.6,276.8,0.1
		c-2.2-1.4-4.5-1-6.7-1c-25.8,0-51.7,0-77.5-0.1c-3.2,0-6.6,0.7-9.5-1.4c-0.6-0.9-1.3-1.8,0.6-2.1c6.9-0.9,11.8-5.1,16.2-10
		c1.2-1.4,2.3-2.8,3.4-4.2c3.4-1.3,7-1.4,10.7-1.4c24.7,0,49.5,0,74.2,0c2.1,0,4.2,0.2,6.8-0.7c-2.9-1.2-5.3-0.8-7.6-0.8
		c-24.2-0.1-48.4,0.1-72.6-0.1c-3,0-6.3,0.9-8.4-2.5c1.1-3.3,2.4-6.5,3.3-9.8c0.6-2.4,1.9-3.2,4.2-3.2c5.4,0.1,10.9,0,16.3,0
		c2.4,0,4.7,0,6.8-1.3c17.4-2.9,35-0.6,52.6-1.4c2.4-0.1,5,0.6,7.6-1.2c-1.8-1.9-4.1-1.4-6.1-1.4c-13-0.1-26.1,0.1-39.2-0.1
		c-2.6,0-5.6,0.6-7.3-2.4c2.6-3.3,5-6.6,7.6-9.8c2.2-2.2,5.1-2.5,8.1-2.5c10.2-0.1,20.3,0,30.5,0c2.1,0,4.3,0.3,6.6-1
		c-1.9-2.2-4.2-1.5-6.2-1.5c-9.6-0.1-19.2,0.1-28.8-0.1C145.8,972.1,143.1,972.5,141.5,969.7z"/>
	<path class="st2" d="M-24.6,934.9c0,28,0,56,0,84.1c0,1.4,0.1,2.9,0,4.4c-0.2,4.1-0.9,4.5-4.6,3c-5.2-2-9.5-5.4-13.5-9
		c-2.6-2.3-5.2-3-8.4-2.9c-20.9,0.1-41.8,0-62.7,0c-1.6,0-3.3,0-4.9-0.1c-2-0.1-2.8-1.4-2.8-3.3c0-2,1-3,3-3.1
		c1.4-0.1,2.9-0.1,4.4-0.1c19.1,0,38.2,0,57.3,0c6.6,0,6.9-0.3,4.2-6.3c-2.9-6.2-3.4-13-4.3-19.6c-0.8-5.7-0.6-5.8-6.6-5.8
		c-12.9,0-25.8,0-38.7,0c-2.5,0-4.9,0-5-3.4c3.3-11.7,6.6-23.3,9.8-35c0.8-3.1,2.8-3.3,5.3-3.3c14.5,0.1,29,0,43.5,0.1
		C-40.9,934.8-32.7,934.3-24.6,934.9z"/>
	<path class="st2" d="M68.1,1028.5c2,0.1,4,0.2,6,0.2c29.4,0,58.9,0,88.4,0c1.6,0,3.3,0,4.9,0.2c1.8,0.2,2.4,1.4,2.4,3
		c0,1.6-0.5,2.9-2.3,3.2c-1.3,0.2-2.6,0.2-3.8,0.2c-93.1,0-186.2,0-279.3,0c-1.1,0-2.2,0-3.3-0.1c-2.1-0.2-2.8-1.4-2.7-3.4
		c0-1.7,0.8-2.8,2.6-3c1.6-0.2,3.3-0.2,4.9-0.2c27.8,0,55.7,0,83.4,0c2.6,0,5.1-0.2,7.6-0.2c11.1,0,22.2,0,33.3-0.1
		c4.7,0,4.9-0.1,5-5c0.4-14,0.6-28,1-42c0.7-32.2,1.4-64.3,2.2-96.5c0.2-8.2,0.6-16.3,0.9-24.5c1.2-12.7,0.5-25.5,0.8-38.2
		c0-7.8-0.1-15.6,0-23.4c0.1-4.2,0.5-4.3,4.8-2.6c4,5.1,2,10.2-0.1,15.3c-0.2,13.5-1.4,10.7,10.5,11c3.6,0.1,7.2-0.1,10.9,0
		c3.8,0.1,4.1,0.5,2.4,4.2c-2.2,5-4.6,9.8-6.9,14.7c-1,2.1-2.2,3.1-4.6,3c-2.7-0.2-5.4-0.1-8.2,0c-4.6,0.1-4.6,0.1-4.4,5
		c0.5,1,0.9,1.9,1.2,2.9c1.2,13.2,2.2,26.4,2.4,39.7c0.2,31,1.8,62.1,2.6,93.1c0.2,9.4-0.9,18.8,0.5,28.2c0.3,2-0.6,3.9-1.1,5.8
		c-1.8,5.8,0.6,9,6.6,9c9.8,0,19.5,0.1,29.3-0.4C66.8,1027.8,67.5,1028.1,68.1,1028.5z"/>
	<path class="st3" d="M68.1,1028.5c-11,0-22.2,0-33.2-0.1c-5.4,0-5.4-0.1-5.6-5.5c-0.5-18.7-1-37.4-1.4-56.1
		c-1-36.3-2.2-72.6-3.2-108.9c-0.1-2.2,0-4.3,0.1-6.6c1.8,0.2,2.3,1.8,3.3,2.9c8.7,14.6,11.8,31,15.4,47.4
		c3.9,17.8,4.2,36.1,3.2,54.2c-1,16.1-3.1,32.2-11.4,46.6c-0.7,1.8-2.6,3.3-1.8,5.6c1.4,4.2,1.7,8-1.9,11.5
		c-2.2,2.2,0.2,7.8,3.5,7.9c6.1,0.1,12.3,1.4,18.3-1c1.1-0.5,2-0.5,3,0.1c3.1,1.7,6.2,1.6,9.3-0.2c1.7-1,3.1-0.6,3.8,1.4
		C69,1028,68.5,1028.3,68.1,1028.5z"/>
	<path class="st4" d="M33.3,1003.6c9.6-24.5,12.6-49.9,10.8-76c-1.7-23.8-7.2-46.6-15.8-68.8c-0.6-1.5-1.1-3-1.7-4.6
		c-0.3-1.2,0.2-1.5,1.3-1.3c13.7,15.2,24,32.3,29.2,52.2c6.3,24.1,3.6,47.5-5.7,70.4c-4.4,10.8-10,21-17.2,30.2
		C32.3,1005.8,32.7,1004.7,33.3,1003.6z"/>
	<path class="st2" d="M92.3,1008c29.1,0,58.2,0,87.3,0c1.6,0,3.3,0,4.9,0.1c2,0.1,2.8,1.4,2.8,3.3c0,2-1,3-3,3.1
		c-1.4,0.1-2.9,0.1-4.4,0.1c-28,0-56,0-84,0c-2.3,0-4.8,0.6-6.9-1C90.1,1011.6,91.2,1009.8,92.3,1008z"/>
	<path class="st4" d="M24.8,811.5c-0.3-5.1-0.4-10.2,0.1-15.3c1.1-0.9,2.2-1.8,3.4-2.7c5.4-3.8,11-4,16.8-0.6
		c2.1,1.2,3.8,2.7,5.5,4.4c5.9,5.8,12.6,8.2,20.8,5.3c1.2-0.3,1.5,0.2,1.3,1.3c-10,8.7-21.7,9.4-33.9,7c-1.4-0.2-2.9-0.6-4.2-1.1
		C30.9,808.5,27.7,808.9,24.8,811.5z"/>
	<path class="st5" d="M20.1,822.3c2.2,0.6,2.3,2.5,2.3,4.3c0,4.5,0.9,9.2-0.2,13.4c-1.8,6.8-1.4,13.8-3,20.5c0-4.2-0.2-8.3-0.1-12.5
		c0.1-2.5-0.8-3.8-3.4-3.7c-2.7,0.1-5.4-0.1-8.2,0c-2.3,0.1-3.7-0.9-4.6-3c-2.3-5.1-4.8-10.2-7-15.3c-1.3-2.8-0.8-3.4,2.5-3.6
		C5.6,822.4,12.8,822.4,20.1,822.3z"/>
	<path class="st6" d="M130.6,987.3c16.9,0,33.8,0,50.6,0c1.3,0,2.6,0,3.8,0.1c2.6,0,3.4,1.6,3.4,3.9c0,2.2-0.8,3.5-3.1,3.6
		c-1.3,0.1-2.6,0.1-3.8,0.1c-17.4,0-34.9,0-52.3,0c-2.2,0-4.4,0.5-6.3-1.1C125.5,991.6,128,989.4,130.6,987.3z"/>
	<path class="st6" d="M141.5,969.7c13.9,0,27.9,0,41.8,0c4.3,0,5.4,1,5,4.4c-0.2,2.6-1,3.2-5.1,3.2c-11.4,0.1-22.8,0-34.2,0
		c-3.6,0-7.3,0-10.9,0C139.3,974.9,140.4,972.3,141.5,969.7z"/>
	<path class="st7" d="M203.5,976.7c-1.4-4.6-0.4-9.3-0.6-13.9c-0.1-2-0.1-3.9-0.1-5.9c2.6-0.3,5.1-0.3,7.7,0
		c3.2,3.2,2.2,6.4,0.2,9.7c-0.1,2-0.1,3.9-0.2,5.9c-0.2,4-0.2,4-4.2,4.2C205.3,976.7,204.4,976.7,203.5,976.7z"/>
	<path class="st8" d="M210.7,966.5c-0.1-3.2-0.1-6.5-0.2-9.7c5.8-0.1,11.5-0.2,17.3-0.2c1.4,0,3-0.4,3.2,1.8
		c0.1,1.9-1.3,2.3-2.7,2.8C222.4,963.1,216.5,964.8,210.7,966.5z"/>
	<path class="st9" d="M72.7,803.7c-0.4-0.4-0.8-0.9-1.3-1.3c1.8-1.3,3.4-2.6,5.7-3l-0.1-0.1C76.2,801.5,74.6,802.8,72.7,803.7z"/>
	<path class="st10" d="M33.3,1003.6c0.3,0.7,0.7,1.4,1,2.2c-0.3,0.7-0.6,1.5-1,2.2c-0.7,0.1-2.2,1.8-1.9-0.6
		C31.6,1006.1,32.2,1004.6,33.3,1003.6z"/>
	<path class="st11" d="M27.9,852.9c-0.4,0.4-0.9,0.9-1.3,1.3c-0.6-0.9-1.4-1.8-2-2.6c0-0.7,0-1.4,0-2.1
		C26,850.3,27.3,851.3,27.9,852.9z"/>
	<path class="st12" d="M77.1,799.4c0.1-0.2,0.2-0.4,0.2-0.4C77.5,799.1,77.5,799.3,77.1,799.4C77,799.3,77.1,799.4,77.1,799.4z"/>
	<path class="st2" d="M23.5,1053.9c-32,0-64.1,0-96.1,0c-1.6,0-3.3,0-4.9-0.2c-1.8-0.2-2.5-1.2-2.6-3c-0.1-1.9,0.6-3.2,2.7-3.4
		c1.4-0.1,2.9-0.1,4.4-0.1c64.4,0,128.9,0,193.3,0c1.4,0,2.9,0,4.4,0.2c1.8,0.2,2.5,1.3,2.6,3c0.1,1.9-0.6,3.2-2.7,3.4
		c-1.6,0.1-3.3,0.1-4.9,0.1C87.5,1053.9,55.5,1053.9,23.5,1053.9z"/>
	<path class="st4" d="M-65.3,956.9c0.1,5.4-4.6,10.2-10,10.2c-5.8,0.2-10.5-4.4-10.5-10.2c0-5.7,4.2-10,9.9-10.2
		C-70.1,946.6-65.4,951.1-65.3,956.9z"/>
	<path class="st13" d="M-35.3,956.6c0.1,5.9-4.2,10.5-10.1,10.5c-5.6,0-10-4.2-10.1-9.9c-0.2-6,4.2-10.4,10.1-10.4
		C-39.7,946.7-35.3,950.9-35.3,956.6z"/>
</g>
</svg>
