<?xml version="1.0" encoding="utf-8"?>
<!-- Generator: Adobe Illustrator 19.1.0, SVG Export Plug-In . SVG Version: 6.00 Build 0)  -->
<svg version="1.1" id="Layer_1" xmlns="http://www.w3.org/2000/svg" xmlns:xlink="http://www.w3.org/1999/xlink" x="0px" y="0px"
	 viewBox="0 0 570.1 570.1" style="enable-background:new 0 0 570.1 570.1;" xml:space="preserve">
<style type="text/css">
	.st0{fill:#D8D1C9;}
	.st1{fill:#B3857B;}
	.st2{fill:#A1796F;}
	.st3{fill:#8E6B62;}
	.st4{fill:#F7981D;}
	.st5{fill:#FDBC11;}
	.st6{fill:#FDBB11;}
</style>
<circle class="st0" cx="285" cy="285" r="285"/>
<g>
	<path class="st1" d="M370.9,128.8c-9.4,5.4-17.9,12.2-26.7,18.5c-26.4,18.7-52.6,37.6-78.9,56.2c-3.8,2.7-5.5,5.7-5.9,10.3
		c-0.4,5.4,0.2,10.9-1.5,16.1c-1.5,2.7-2.3,5.5-1.9,8.5c2.6,21.2,8.8,41,21.7,58.3c0.4,0.6,0.8,1.2,1.3,1.7c0.6,0.9,1,1.9,1.8,2.7
		c3.4,3.6,6.2,8,11.4,9.2c4.6,0,8.8-1.9,12.6-4c28.1-16.1,57.2-30.3,85.1-46.6c2.2-1.3,4.3-2.4,5.4-4.9c0.3-0.7,0.4-1.5,0.4-2.3
		c0-0.8-0.2-1.5-0.4-2.3c-7.3-9.8-15.7-18.8-21.6-29.8c-10.3-18.9-15.2-38.9-12.8-60.4c0.9-8.2,4.3-15.6,8.4-22.7
		C370.7,134.8,373.1,132.3,370.9,128.8z"/>
	<path class="st2" d="M279.9,296.4c-2.4-6.5-6.7-12-9.6-18.2c-6.1-13.1-9.7-26.8-11.2-41.1c-0.3-2.4-0.1-4.9-1.3-7.2
		c-17.4,12.2-34.9,24.4-52.3,36.6c-16.4,11.5-32.7,23.2-49.1,34.7c-3.6,2.5-6,5.5-7.4,9.7c-3,8.5-4.4,17.2-4.1,26.2
		c-2.5,5.7-2.9,11.3-0.3,17.1c1.9,4.1,0.5,6.9-3.5,9c-24.3,12.6-47.3,27.5-71.5,40.3c-3.6,1.9-7,4-5.9,9.1c1.7,3.7,4.2,3.2,7.3,1.8
		c9.6-4.5,19.4-8.8,29-13.2c18.7-8.4,37.4-16.9,56.1-25.3c1.6-0.7,3-1.7,4.5-2.5c37.5-22.4,74.7-45.3,111.8-68.2
		C275.8,303.2,280.5,301.9,279.9,296.4z"/>
	<path class="st2" d="M394.2,253.7c-13.5,7.5-26.9,15.3-40.9,22.1c-6.9,3.3-13.1,7.8-20,11.1c-8.5,3.9-16.5,8.8-24.6,13.6
		c-5.3,3.1-11,5.5-16.5,8.2c-1.6,3.2,0.5,5.1,2.3,7.1c4.2,4.6,8.9,8.4,14.8,10.7c2.7-1.1,4.7,0.6,6.8,1.8c3.6,2.1,7.4,4,10.9,6.3
		c3.8,2.5,7.1,2,11,0c25.4-13.3,50.9-26.4,76.3-39.6c11.8-6.1,23.6-12.4,35.4-18.6c-1-2.7-3.4-3.3-5.9-3.6
		c-15.5-2-29.4-7.6-41.7-17.4C399.9,253.4,397.4,251.8,394.2,253.7z"/>
	<path class="st3" d="M394.2,253.7c6.3,3.5,11.2,8.7,17.5,12.2c12,6.5,24.6,9.8,38.1,10.4c24.5-1.3,40.7-20.5,43.8-44.8
		c3.3-26.3-4.5-50-18.8-71.7c-11.1-16.9-25.3-30.5-44.1-38.6c-16.6-7.2-33.3-9-50.1-0.2c-3.9,2-6.6,5.1-9.7,7.8
		c-4.8,7.2-9.6,14.4-11.7,23c-4.9,20.3-2.4,39.8,5.7,58.7c6.7,15.6,16,29.5,28.2,41.4C393.4,252.5,393.9,253,394.2,253.7
		L394.2,253.7z"/>
	<path class="st3" d="M309.4,326.4c0-3.5-2.7-5-5-6.6c-4.7-3.1-8.5-7.1-12.1-11.2c-3.2-3.4-6.5-6.7-9.7-10.1
		c-0.4-0.6-0.8-1.1-1.2-1.7c-0.5-0.1-0.9-0.2-1.4-0.4c-2,2.2-4.7,3.5-7.3,5.1c-35.5,21.7-71.1,43.4-106.6,65.2
		c-2.5,1.6-6.4,2.4-5.5,6.8c7.6,4.1,15,8.5,23.6,10.5c0.5,0.1,0.9,0.3,1.4,0.5c9.3,2.8,17.6,2.5,26.6-2.8
		c30.4-17.9,61.5-34.7,92.2-52C306.1,328.6,307.7,327.5,309.4,326.4z"/>
	<path class="st1" d="M63.6,412.7c1.5-3.5,4.6-5.2,7.8-6.4c4.4-1.7,8.4-4.2,12.4-6.7c16.7-10.5,34.5-19.1,51.2-29.8
		c4.1-2.6,9-4.1,13.1-6.9c1.5-1.1,2.9-2.2,1.7-4.2c-3.7-6.7-4-14.1-4.9-21.4c-6.1,6.6-13.7,11.3-20.7,16.7
		c-19.5,15.1-39.2,30-58.8,45c-0.2,0.1-0.4,0.3-0.6,0.5C57.8,404.8,57.7,405.5,63.6,412.7z"/>
	<path class="st2" d="M281.3,296.8c0.4,0.6,0.8,1.2,1.2,1.7C282.1,297.9,281.7,297.4,281.3,296.8z"/>
	<path class="st2" d="M394.2,253.7c-0.4-0.6-0.7-1.2-1.1-1.8C393.5,252.5,393.9,253.1,394.2,253.7z"/>
	<path class="st4" d="M432.5,260.2c27.1,7.5,49.2-9.7,50.9-37.3c2.1-35.7-13.7-63-42.5-83.2c-6.6-4.6-14.1-7.2-21.9-8.8
		c-21.8-4.5-40.2,6.7-46.2,28.2c-2.5,9-2.9,18.1-1.4,27.2c4.4,26.7,17.5,48.1,39.4,64C417.6,255.1,424.9,258.7,432.5,260.2z"/>
	<path class="st5" d="M476.3,205.3c3.3-14.3-9.6-31.6-24.2-32.3c-5.4-0.3-10.6,4.4-11.5,10.5c-2,13,7.7,28.3,20.1,32
		C468.4,217.8,474.3,214,476.3,205.3z"/>
	<path class="st6" d="M444.1,146.6c-4.3-1.1-7.9,1.4-8.4,5.9c-0.7,5.3,3.5,11.7,8.7,13.4c4,1.3,8.1-1.3,8.9-5.5
		C454.1,155.3,449.3,147.9,444.1,146.6z"/>
</g>
</svg>
