<?xml version="1.0" encoding="utf-8"?>
<!-- Generator: Adobe Illustrator 19.1.0, SVG Export Plug-In . SVG Version: 6.00 Build 0)  -->
<svg version="1.1" id="Layer_1" xmlns="http://www.w3.org/2000/svg" xmlns:xlink="http://www.w3.org/1999/xlink" x="0px" y="0px"
	 viewBox="-254 675.9 570.1 570.1" style="enable-background:new -254 675.9 570.1 570.1;" xml:space="preserve">
<style type="text/css">
	.st0{fill:#D8D1C9;}
	.st1{fill:#B3857B;}
	.st2{fill:#A1796F;}
	.st3{fill:#8E6B62;}
	.st4{fill:#F7981D;}
	.st5{fill:#FDBC11;}
	.st6{fill:#FDBB11;}
</style>
<circle class="st0" cx="31" cy="960.9" r="285"/>
<g>
	<path class="st1" d="M98.1,832c-7.5,4.3-14.3,9.8-21.4,14.8c-21.1,15-42.1,30.1-63.1,45c-3,2.2-4.4,4.6-4.7,8.2
		c-0.3,4.3,0.2,8.7-1.2,12.9c-1.2,2.2-1.8,4.4-1.5,6.8c2.1,17,7,32.8,17.4,46.6c0.3,0.5,0.6,1,1,1.4c0.5,0.7,0.8,1.5,1.4,2.2
		c2.7,2.9,5,6.4,9.1,7.4c3.7,0,7-1.5,10.1-3.2c22.5-12.9,45.8-24.2,68.1-37.3c1.8-1,3.4-1.9,4.3-3.9c0.2-0.6,0.3-1.2,0.3-1.8
		c0-0.6-0.2-1.2-0.3-1.8c-5.8-7.8-12.6-15-17.3-23.8c-8.2-15.1-12.2-31.1-10.2-48.3c0.7-6.6,3.4-12.5,6.7-18.2
		C97.9,836.8,99.9,834.8,98.1,832z"/>
	<path class="st2" d="M25.3,966.1c-1.9-5.2-5.4-9.6-7.7-14.6c-4.9-10.5-7.8-21.4-9-32.9c-0.2-1.9-0.1-3.9-1-5.8
		c-13.9,9.8-27.9,19.5-41.8,29.3c-13.1,9.2-26.2,18.6-39.3,27.8c-2.9,2-4.8,4.4-5.9,7.8c-2.4,6.8-3.5,13.8-3.3,21
		c-2,4.6-2.3,9-0.2,13.7c1.5,3.3,0.4,5.5-2.8,7.2c-19.4,10.1-37.8,22-57.2,32.2c-2.9,1.5-5.6,3.2-4.7,7.3c1.4,3,3.4,2.6,5.8,1.4
		c7.7-3.6,15.5-7,23.2-10.6c15-6.7,29.9-13.5,44.9-20.2c1.3-0.6,2.4-1.4,3.6-2c30-17.9,59.8-36.2,89.4-54.6
		C22,971.5,25.8,970.5,25.3,966.1z"/>
	<path class="st2" d="M116.7,931.9c-10.8,6-21.5,12.2-32.7,17.7c-5.5,2.6-10.5,6.2-16,8.9c-6.8,3.1-13.2,7-19.7,10.9
		c-4.2,2.5-8.8,4.4-13.2,6.6c-1.3,2.6,0.4,4.1,1.8,5.7c3.4,3.7,7.1,6.7,11.8,8.6c2.2-0.9,3.8,0.5,5.4,1.4c2.9,1.7,5.9,3.2,8.7,5
		c3,2,5.7,1.6,8.8,0c20.3-10.6,40.7-21.1,61-31.7c9.4-4.9,18.9-9.9,28.3-14.9c-0.8-2.2-2.7-2.6-4.7-2.9
		c-12.4-1.6-23.5-6.1-33.4-13.9C121.3,931.7,119.3,930.4,116.7,931.9z"/>
	<path class="st3" d="M116.7,931.9c5,2.8,9,7,14,9.8c9.6,5.2,19.7,7.8,30.5,8.3c19.6-1,32.6-16.4,35-35.8c2.6-21-3.6-40-15-57.4
		c-8.9-13.5-20.2-24.4-35.3-30.9c-13.3-5.8-26.6-7.2-40.1-0.2c-3.1,1.6-5.3,4.1-7.8,6.2c-3.8,5.8-7.7,11.5-9.4,18.4
		c-3.9,16.2-1.9,31.8,4.6,47c5.4,12.5,12.8,23.6,22.6,33.1C116.1,931,116.5,931.4,116.7,931.9L116.7,931.9z"/>
	<path class="st3" d="M48.9,990.1c0-2.8-2.2-4-4-5.3c-3.8-2.5-6.8-5.7-9.7-9c-2.6-2.7-5.2-5.4-7.8-8.1c-0.3-0.5-0.6-0.9-1-1.4
		c-0.4-0.1-0.7-0.2-1.1-0.3c-1.6,1.8-3.8,2.8-5.8,4.1c-28.4,17.4-56.9,34.7-85.3,52.2c-2,1.3-5.1,1.9-4.4,5.4
		c6.1,3.3,12,6.8,18.9,8.4c0.4,0.1,0.7,0.2,1.1,0.4c7.4,2.2,14.1,2,21.3-2.2c24.3-14.3,49.2-27.8,73.8-41.6
		C46.3,991.8,47.5,991,48.9,990.1z"/>
	<path class="st1" d="M-147.7,1059.1c1.2-2.8,3.7-4.2,6.2-5.1c3.5-1.4,6.7-3.4,9.9-5.4c13.4-8.4,27.6-15.3,41-23.8
		c3.3-2.1,7.2-3.3,10.5-5.5c1.2-0.9,2.3-1.8,1.4-3.4c-3-5.4-3.2-11.3-3.9-17.1c-4.9,5.3-11,9-16.6,13.4c-15.6,12.1-31.4,24-47,36
		c-0.2,0.1-0.3,0.2-0.5,0.4C-152.4,1052.8-152.5,1053.4-147.7,1059.1z"/>
	<path class="st2" d="M26.4,966.4c0.3,0.5,0.6,1,1,1.4C27.1,967.3,26.7,966.9,26.4,966.4z"/>
	<path class="st2" d="M116.7,931.9c-0.3-0.5-0.6-1-0.9-1.4C116.2,931,116.5,931.4,116.7,931.9z"/>
	<path class="st4" d="M147.4,937.1c21.7,6,39.4-7.8,40.7-29.8c1.7-28.6-11-50.4-34-66.6c-5.3-3.7-11.3-5.8-17.5-7
		c-17.4-3.6-32.2,5.4-37,22.6c-2,7.2-2.3,14.5-1.1,21.8c3.5,21.4,14,38.5,31.5,51.2C135.5,933,141.3,935.9,147.4,937.1z"/>
	<path class="st5" d="M182.4,893.2c2.6-11.4-7.7-25.3-19.4-25.8c-4.3-0.2-8.5,3.5-9.2,8.4c-1.6,10.4,6.2,22.6,16.1,25.6
		C176.1,903.2,180.8,900.2,182.4,893.2z"/>
	<path class="st6" d="M156.7,846.2c-3.4-0.9-6.3,1.1-6.7,4.7c-0.6,4.2,2.8,9.4,7,10.7c3.2,1,6.5-1,7.1-4.4
		C164.7,853.2,160.8,847.3,156.7,846.2z"/>
</g>
</svg>
