<?xml version="1.0" encoding="utf-8"?>
<!-- Generator: Adobe Illustrator 19.1.0, SVG Export Plug-In . SVG Version: 6.00 Build 0)  -->
<svg version="1.1" id="Layer_1" xmlns="http://www.w3.org/2000/svg" xmlns:xlink="http://www.w3.org/1999/xlink" x="0px" y="0px"
	 viewBox="-254 675.9 570.1 570.1" style="enable-background:new -254 675.9 570.1 570.1;" xml:space="preserve">
<style type="text/css">
	.st0{fill:#D8D1C9;}
	.st1{fill:#A1796F;}
	.st2{fill:#B3857B;}
	.st3{fill:#F6F6F6;}
	.st4{fill:#F68B00;}
</style>
<circle class="st0" cx="31" cy="960.9" r="285"/>
<g>
	<path class="st1" d="M49.5,789.1c0,8.5-6.9,15.4-15.4,15.4H28c-8.5,0-15.4-6.9-15.4-15.4l0,0c0-8.5,6.9-15.4,15.4-15.4h6.2
		C42.6,773.6,49.5,780.5,49.5,789.1L49.5,789.1z"/>
	<circle class="st2" cx="31" cy="939.3" r="136"/>
	<ellipse class="st2" cx="31" cy="1106.6" rx="136" ry="41.6"/>
	<ellipse class="st1" cx="31" cy="1100.5" rx="119.3" ry="36.5"/>
	<circle class="st3" cx="31" cy="939.3" r="113.6"/>
	<g>
		<path class="st1" d="M30.9,1046.5c-0.6,0-1.3,0-1.9,0l0.5-25.8c3.3,0.1,6.7-0.1,10-0.5l2.7,25.7
			C38.4,1046.3,34.7,1046.5,30.9,1046.5z M-13.7,1036.7c-4-1.8-7.9-3.9-11.7-6.2l13.6-22c2.9,1.8,5.8,3.4,8.9,4.7L-13.7,1036.7z
			 M83.9,1032.7l-12.7-22.5c2.9-1.6,5.7-3.4,8.4-5.4l15.4,20.7C91.4,1028,87.7,1030.5,83.9,1032.7z M-57.1,1000.4
			c-2.5-3.6-4.8-7.4-6.9-11.3l22.9-12c1.5,3,3.3,5.8,5.2,8.6L-57.1,1000.4z M124,992.7l-22.4-12.9c1.7-2.9,3.2-5.9,4.5-9L130,981
			C128.2,985,126.2,988.9,124,992.7z M-76,947.1c-0.2-2.6-0.3-5.3-0.3-7.9c0-1.8,0.1-3.5,0.2-5.3l25.8,1.3c-0.1,1.3-0.1,2.6-0.1,4
			c0,2,0.1,4,0.2,6.1L-76,947.1z M112.4,938.3c-0.1-3.4-0.3-6.7-0.7-10l25.6-3.5c0.6,4.4,1,8.8,1,13.2L112.4,938.3z M105.3,906
			c-1.4-3-3-6-4.6-8.9l22.1-13.4c2.2,3.8,4.3,7.7,6.2,11.7L105.3,906z M-41.9,903.1L-65,891.5c1.9-3.9,4.2-7.8,6.6-11.4l21.5,14.2
			C-38.8,897.1-40.4,900.1-41.9,903.1z M78,872.8c-2.7-1.9-5.6-3.7-8.6-5.3l12.2-22.8c3.8,2.1,7.7,4.4,11.2,7L78,872.8z M-13.3,871
			l-14.1-21.7c3.7-2.4,7.6-4.6,11.5-6.5l11.3,23.3C-7.6,867.5-10.5,869.1-13.3,871z M37.7,858.1c-3.4-0.2-6.7-0.3-10-0.2l-1.1-25.8
			c4.3-0.2,8.8-0.1,13.2,0.2L37.7,858.1z"/>
	</g>
	<path class="st4" d="M22.3,939.3l7-67l7,67c0.4,3.8-2.4,7.4-6.2,7.8s-7.4-2.4-7.8-6.2C22.2,940.3,22.2,939.7,22.3,939.3z"/>
	<path class="st4" d="M-27.5,996l51.8-61.8c2.5-3,7-3.4,9.9-0.9c3,2.5,3.4,7,0.9,9.9c-0.2,0.3-0.6,0.6-0.9,0.9L-27.5,996z"/>
	<path class="st2" d="M57.4,803.2c0,7.8-6.4,14.2-14.2,14.2H18.8c-7.8,0-14.2-6.4-14.2-14.2l0,0c0-7.8,6.4-14.2,14.2-14.2h24.4
		C51.1,789.1,57.4,795.4,57.4,803.2L57.4,803.2z"/>
</g>
</svg>
