<?xml version="1.0" encoding="utf-8"?>
<!-- Generator: Adobe Illustrator 19.1.0, SVG Export Plug-In . SVG Version: 6.00 Build 0)  -->
<svg version="1.1" id="Layer_1" xmlns="http://www.w3.org/2000/svg" xmlns:xlink="http://www.w3.org/1999/xlink" x="0px" y="0px"
	 viewBox="0 0 570.1 570.1" style="enable-background:new 0 0 570.1 570.1;" xml:space="preserve">
<style type="text/css">
	.st0{fill:#D8D1C9;}
	.st1{fill:#A1796F;}
	.st2{fill:#B3857B;}
	.st3{fill:#F6F6F6;}
	.st4{fill:#F68B00;}
</style>
<circle class="st0" cx="285" cy="285" r="285"/>
<g>
	<path class="st1" d="M308.1,70.2c0,10.6-8.6,19.2-19.2,19.2h-7.7c-10.6,0-19.2-8.6-19.2-19.2l0,0c0-10.6,8.6-19.2,19.2-19.2h7.7
		C299.5,50.9,308.1,59.5,308.1,70.2L308.1,70.2z"/>
	<circle class="st2" cx="285" cy="258" r="170"/>
	<ellipse class="st2" cx="285" cy="467.1" rx="170" ry="52"/>
	<ellipse class="st1" cx="285" cy="459.5" rx="149.1" ry="45.6"/>
	<circle class="st3" cx="285" cy="258" r="142"/>
	<g>
		<path class="st1" d="M284.9,392c-0.8,0-1.6,0-2.4,0l0.6-32.3c4.1,0.1,8.4-0.1,12.5-0.6l3.4,32.1C294.3,391.8,289.6,392,284.9,392z
			 M229.1,379.8c-5-2.3-9.9-4.9-14.6-7.8l17-27.5c3.6,2.2,7.3,4.2,11.1,5.9L229.1,379.8z M351.1,374.7l-15.9-28.1
			c3.6-2,7.1-4.3,10.5-6.8l19.3,25.9C360.5,368.9,355.9,372,351.1,374.7z M174.9,334.4c-3.1-4.5-6-9.3-8.6-14.1l28.6-15
			c1.9,3.7,4.1,7.3,6.5,10.7L174.9,334.4z M401.3,324.8l-28-16.1c2.1-3.6,4-7.4,5.6-11.2l29.8,12.6C406.5,315.1,404,320,401.3,324.8
			z M151.3,267.8c-0.2-3.3-0.4-6.6-0.4-9.9c0-2.2,0.1-4.4,0.2-6.6l32.3,1.6c-0.1,1.6-0.1,3.3-0.1,5c0,2.5,0.1,5,0.3,7.6L151.3,267.8
			z M386.8,256.7c-0.1-4.2-0.4-8.4-0.9-12.5l32-4.4c0.7,5.5,1.2,11,1.2,16.5L386.8,256.7z M377.9,216.4c-1.7-3.8-3.7-7.5-5.8-11.1
			l27.6-16.7c2.8,4.7,5.4,9.6,7.7,14.6L377.9,216.4z M193.9,212.7L165,198.3c2.4-4.9,5.2-9.7,8.3-14.3l26.9,17.8
			C197.8,205.3,195.7,209,193.9,212.7z M343.8,174.9c-3.4-2.4-7-4.6-10.7-6.6l15.3-28.5c4.8,2.6,9.6,5.5,14,8.7L343.8,174.9z
			 M229.6,172.6L212,145.5c4.6-3,9.5-5.7,14.4-8.1l14.1,29.1C236.8,168.2,233.1,170.3,229.6,172.6z M293.4,156.5
			c-4.2-0.3-8.4-0.4-12.5-0.2l-1.4-32.3c5.4-0.2,11-0.1,16.5,0.3L293.4,156.5z"/>
	</g>
	<path class="st4" d="M274.1,258l8.8-83.7l8.8,83.7c0.5,4.8-3,9.2-7.8,9.7c-4.8,0.5-9.2-3-9.7-7.8C274,259.2,274,258.5,274.1,258z"
		/>
	<path class="st4" d="M211.9,328.9l64.8-77.2c3.1-3.7,8.7-4.2,12.4-1.1c3.7,3.1,4.2,8.7,1.1,12.4c-0.3,0.4-0.7,0.8-1.1,1.1
		L211.9,328.9z"/>
	<path class="st2" d="M318,87.9c0,9.8-8,17.8-17.8,17.8h-30.5c-9.8,0-17.8-8-17.8-17.8l0,0c0-9.8,8-17.8,17.8-17.8h30.5
		C310.1,70.2,318,78.1,318,87.9L318,87.9z"/>
</g>
</svg>
