<?xml version="1.0" encoding="utf-8"?>
<!-- Generator: Adobe Illustrator 19.1.0, SVG Export Plug-In . SVG Version: 6.00 Build 0)  -->
<svg version="1.1" id="Layer_1" xmlns="http://www.w3.org/2000/svg" xmlns:xlink="http://www.w3.org/1999/xlink" x="0px" y="0px"
	 viewBox="0 0 570.1 570.1" style="enable-background:new 0 0 570.1 570.1;" xml:space="preserve">
<style type="text/css">
	.st0{fill:#D8D1C9;}
	.st1{fill:#F7981D;}
	.st2{fill:#A1796F;}
	.st3{fill:#B3857B;}
	.st4{fill:#8E6B62;}
	.st5{fill:#8F6C62;}
	.st6{fill:#FDBC11;}
	.st7{fill:#FDBC13;}
	.st8{fill:#A2796F;}
	.st9{fill:#FDBC14;}
	.st10{fill:#FBB018;}
	.st11{fill:#A27A6F;}
	.st12{fill:#FDBB11;}
	.st13{fill:#A37A6D;}
	.st14{fill:#FCB713;}
	.st15{fill:#FCB813;}
	.st16{fill:#FCB912;}
	.st17{fill:#FCB913;}
	.st18{fill:#BE8559;}
</style>
<circle class="st0" cx="285" cy="285" r="285"/>
<g>
	<path class="st1" d="M249.6,144.1c2.5-8.4,4.9-16.8,7.5-25.1c1.5-4.7,3.4-9.3,6.5-13.1c2.2-2.7,4.4-5.9,8.8-3.5
		c2.2,2.5,4,5.2,4.6,8.6c3.2,17.3,9.3,34,12.7,51.3c1.2,6.2,1.3,12.6,2.5,18.8c0.3,1.6,0.8,3.9-0.1,4.9c-6.6,7.8-0.7,15.8-0.3,23.6
		c0.3,8.5,3.1,16.7,4.6,25.1c0.4,2.2,0.4,5.6,3.6,5.8c3,0.2,3.2-3.3,4.7-5.2c3.5-3.9,4.5-8.7,5-13.7c1.6-14.9,5.9-29.1,10.1-43.3
		c1.1-3.8,3.9-6.6,5.4-10.1c3.6-4.5,7.6-5.5,12-1c0.8,1.6,1.8,3.1,2,4.9c-1.6,7.4-1.5,14.7,0.2,22.1c1.4,6.4,0.2,7.8-6.3,9.9
		c6.8,7.4,13.5,14.9,6,25.7c-0.6,0.8-0.9,0.2-0.4,0.6c6.5,4.6,4.6,15,12.6,18.3c1.9-0.3,2.9-1.5,3.6-3.2c1.8-11.7,5-23,9.6-33.9
		c1.4-3.4,3.9-6.4,8-6.2c3.2,0.1,4.4,2.8,4.8,5.8c-3.6,13.5,1.6,26.2,3.7,39.1c1.6,9.6,2,19.3,0.7,28.8c-1.4,10-8.2,16-18,18.2
		c-14.2,3.1-27.5,8-38.5,17.8c-14.8,1.9-29.1-1.8-43.6-3.3c-32.7-3.3-65.3-7.1-97.9-10.8c-14.8-1.7-29.6-3.3-44.4-5.3
		c-8.6-1.2-10.6-6.1-6.3-14.1c2.7-7.3,3-15.1,4.8-22.5c2-8,3.6-16.2,7.3-23.7c1.5-3.1,2.5-7.8,7.9-6.5c4.2,5.3,5.1,11.5,5.3,18
		c0.2,5.7-2.3,8.6-7.4,7.9c6.4,2.7,13.7,4.7,21.6,2.5c5.1-27.6,10.3-55.3,18.4-82.3c1.4-4.8,3-9.5,5.4-13.8c1-1.8,1.6-4.4,4.7-3.6
		c7.5,20.7,15.3,41.4,15.3,63.9c0,3.6,0.5,7.2,1.7,10.6c2.4,6.9,5.4,8.1,12.6,5.1c2.4-1.4,3.4-3.8,3.2-6.3
		c-1-13.3,4.4-25.8,5.3-38.8c0.2-2.8,0.1-5.4-0.1-8.1c1.9-9.7,3.1-19.5,5.9-29C244.6,150.3,245.9,146.6,249.6,144.1z"/>
	<path class="st2" d="M336.5,172.4c-0.2-1.1-0.4-2.3-0.7-3.4c1.9-3.6,5.4-3.8,8.7-3.5c21.7,2.1,43.6,0.6,65.3,2.5
		c13.8,1.2,27.6,0.6,41.4,0.3c1.3,0,2.8-0.2,3.7-3.1c-9.9-1.1-19.8-2.2-29.4-2.1c-29.6,0.3-59.1-1.9-88.6-2.3
		c-13.4-0.2-27.1,0.3-40.3-3.6c-3.9-3.3-5-7.1-1.6-11.4c36.1,1.4,72.2,2.8,108.3,4.2c20.4,0.8,40.8,1.5,61.2,2.4
		c3,0.1,6.1-0.7,8.8,1.3c1.1,5.1-0.2,9.6-2,14.4c-13.2,34.5-26.2,69.1-39.1,103.6c-1.7,4.5-3.9,8.5-7.1,12
		c-2.8,3.1-1.5,6.8-1.2,10.3c1.3,13.7,2.8,27.4,4.2,41.1c0.3,3.3,0.2,6.6,0.4,9.9c-1.1,0.7-1.5,1.9-2.1,2.9
		c-0.4,0.5-0.8,0.9-1.3,1.2c-0.7,0.5-1.5,1-2.3,1.4c-0.5,0.3-1,0.6-1.6,0.9c-0.8,0.5-1.7,0.9-2.5,1.2c-0.6,0.3-1.2,0.6-1.9,0.7
		c-1.1,0.3-2.1,0.4-3.2,0.3c-0.8-0.1-1.5-0.4-2.2-0.7c-4.6-4-3.4-8.7-0.3-12.3c3.5-4,4.7-8.3,5.3-13.2c0.2-0.7,0.5-1.3,0.9-2
		c0.7-1.1,1.4-2.3,1.8-3.6c-1.8-5.1-4.9-1.8-7.2-1c-13.4,5.2-26,12.1-39.1,18.1c-9.8,4.5-19.7,8.8-29.3,13.6
		c-3.6,1.8-7.6,4-11.5,0.2c-3-4.9-1.5-10.6-2.3-15.8c-0.8-5.1-3-9.7-3.3-14.9c0.9-2.2,2.9-3.1,5-3.9c23.3-8.6,46-18.3,68.8-28.2
		c5-2.2,10.6-2.3,13.1-3.4c-6.7-0.1-15.7,3.1-24.5-2.4c-4.1-5.3-4.2-11.9-5-18c-2.5-18.6-8.1-36.8-8.9-55.7
		c-0.3-1.6-0.6-3.5-2.5-3.8c-1.5-0.2-2.4,1.3-2.9,2.6c-1.6,3.8-3.1,7.6-4.4,11.5c-2.9,9.2-5.6,18.4-8.4,27.6c-2,0.8-3.7,0.1-5.1-1.3
		c-4.8-8.9-4.7-19.1-6.9-28.7C341.2,203.3,337.3,188.1,336.5,172.4z"/>
	<path class="st3" d="M340.4,448.5c-10.3,0.4-20.1-2.7-30.1-4.4c-64.6-11.3-129.1-22.8-193.6-34.3c-14.4-2.6-28.8-5.4-43.3-7.8
		c-4.6-0.7-5.9-2.8-5.7-7.2c0.4-9.4,2.4-18.7,1.9-28.1c2.5-3.5,5.9-3.4,9.6-2.8c41,5.8,82,12,123,18c39.9,5.8,79.8,11.6,119.6,17.8
		c5.6,0.9,11.7,0.7,16.6,4.5c2.7,4,3.5,8.5,3.8,13.2c0.5,7.6-0.2,15.3,1.2,22.9C344,443.5,342.1,446.1,340.4,448.5z"/>
	<path class="st3" d="M326.9,322c3,1.7,4.6,3.8,5.3,7.6c1.4,7.9,1.4,15.8,1.3,23.8c-2.2,3.4-5.4,3.1-8.8,2.7
		c-38.4-4.3-76.6-9.7-114.9-14.5c-37.5-4.7-75-9.4-112.4-14.5c-7.8-1.1-17,1-22.9-6.8c-0.4-6.5,0.3-12.9,1.2-19.3
		c0.5-3.4,1.7-5.7,5.5-5.5c15.1-0.3,30.2,1,45.2,2.7c36.5,4.2,73.1,7.4,109.6,11.2c24.4,2.5,48.9,5.2,73.3,7.4
		C315.4,317.4,322.3,316.3,326.9,322z"/>
	<path class="st3" d="M68.1,355.3c2-2.2,3.4-4.5,3.5-7.8c0.1-5.2,0.9-10.4,1.4-15.5c8.7-4.6,17.5-0.8,26,0.3
		c41.8,5.4,83.7,10.3,125.5,16c35.5,4.8,71.2,8.3,106.6,14.1c5.9,2.4,8.2,7,8,13.2c-0.2,5,1,9.9-0.4,14.9c-2.9,5.4-8.1,5.3-13.1,5
		c-13.5-1-26.8-3.8-40.2-5.7c-58.8-8.4-117.6-17.4-176.4-25.8c-11.5-1.6-22.9-3.8-34.5-5C71.8,358.4,69.7,357.3,68.1,355.3z"/>
	<path class="st4" d="M425.2,283.9c-1.3-2.3-0.1-4.3,0.6-6.3c11-28.9,22.1-57.8,33.1-86.7c3.8-10.1,7.5-20.2,11.3-30.3
		c0.9-2.3,1.4-4.8,3.2-6.7l0,0.1c0.3,0.9,1.1,1.4,1.9,1.8c12.5,13.7,21.8,29.3,26.2,47.4c5.7,23.4-1,42.7-20.2,57.3
		C464.7,273,445.5,279.8,425.2,283.9z"/>
	<path class="st4" d="M68.1,355.3c12.6-1.2,24.7,2.3,37,3.9c25.5,3.4,50.9,7.3,76.3,11c23.8,3.5,47.5,7.2,71.3,10.8
		c20.2,3,40.4,6,60.7,9c3,0.4,6,1,9,1.3c4.9,0.5,9.9,1.4,14.6-1.3c2.6-7.3,9.6-8.9,15.4-11.5c16.2-7.3,31.8-15.6,47.7-23.4
		c4.3-2.1,8.6-3.5,13.4-3.2c0.6,0,1.1,0,1.7-0.1c0.6-0.5,1.1-1.1,1.7-1.6c0.6,0,1.1,0,1.7-0.1c0.6-0.5,1.1-1.1,1.7-1.6
		c0.6,0,1.1,0,1.7,0c0.6-0.5,1.1-1.1,1.7-1.6c0.6,0,1.1,0,1.7-0.1c1.2-0.9,2.3-1,3.5-0.1c0.3,4,4.6,7.4,1.7,11.8
		c-2.5,4.4-6.3,7.4-11,9.5c-24.2,10.7-47.6,23.1-71.3,34.8c-3.4,1.7-6.9,3.7-11,2c-11.1,0.6-21.9-2.6-32.8-4
		c-25.1-3.3-50.2-7.2-75.2-10.9c-23.7-3.5-47.4-7.1-71.1-10.6c-20.7-3.1-41.4-6.2-62.1-9.2c-8.7-1.3-17.5-2.3-26.2-3.4
		c-2.5-0.5-3.4-2.1-2.8-4.6C67.3,359.9,67.7,357.6,68.1,355.3z"/>
	<path class="st4" d="M330.3,365.2c-11.6-0.6-23-2.7-34.5-4.1c-15.3-1.9-30.6-3.9-45.9-5.9c-15-1.9-30.1-3.8-45.1-5.7
		c-15.3-2-30.6-4-45.9-5.9c-14.8-1.9-29.5-3.6-44.3-5.5c-11.5-1.5-22.9-3.1-34.4-4.5c-2.5-0.3-4.9-0.5-7.2-1.7
		c-0.1-3.9,0.2-7.8,1.6-11.6c26.2,3.3,52.5,6.6,78.7,10c23.8,3.1,47.5,6.4,71.3,9.4c23.8,3,47.6,5.9,71.4,8.8
		c12.6,1.6,25.1,3.2,37.7,4.8c22.5-10.6,45-21.3,67.5-31.9c4-1.9,8.1-3.6,12.2-5.3c2.4-1,5.2-3.6,7.6-1.1c2.6,2.7,5.4,5.9,2.5,10.2
		c-0.9,1-2.5,0.6-3.3,1.6c-0.6,0-1.1,0.1-1.7,0.1c-3.4,7.7-10.9,9.7-17.6,12.8c-16.7,7.7-33.6,15.3-50.1,23.5
		C344.1,366.6,337.5,368.5,330.3,365.2z"/>
	<path class="st2" d="M337,404.9c1.4-0.9,2.6-2,4.1-2.7c29.5-14.9,59.1-29.7,89.2-43.6c1,9.3,1.9,18.6,2.9,27.9
		c0.4,3.5-0.1,6.2-3.6,8.3c-29.3,17.6-58.4,35.5-87.6,53.2c-0.4,0.3-1.1,0.3-1.6,0.4C339.3,434,338.1,419.4,337,404.9z"/>
	<path class="st5" d="M326.9,322c-15.7-0.6-31.2-2.9-46.9-4.4c-13.1-1.3-26.3-2.7-39.4-4c-14.2-1.5-28.5-3-42.7-4.4
		c-13.1-1.3-26.3-2.6-39.4-3.9c-14-1.4-27.9-3-41.9-4.4c-8.5-0.9-17-1.6-25.5-2.3c-3.6-0.3-7.2-0.2-9.9-3.2
		c17.2-4.7,34.3-9.4,51.5-14.2c0.1,9.9,0.1,9.7,10.5,10.9c26.9,3,53.8,6.1,80.8,9.2c27.2,3.1,54.4,6.1,81.6,9
		c6.6,0.7,13.1,2.3,19.8,1.7c12.6-6.8,25.6-12.4,39.7-15.5c7.4-1.6,14.7-4.7,20.2-10.6c1.3-1.5,3.1-2.2,5.2-2.2
		c9.1,0.1,18.2-0.8,27.6,2.4c-9.4,5.9-19.8,8.8-29.4,13.1c-15.9,7-32,13.4-48.1,20C336.2,321.1,331.7,322.3,326.9,322z"/>
	<path class="st6" d="M295.1,145.9c0.1,3.5,1.1,6.7,2.4,9.9c0.5,0.6,1.1,1.1,1.8,1.6c1.1,0.7,1.9,1.6,2.4,2.8c0.9,2.9,1.8,5.9,1.7,9
		c5,20.5,8.2,41.1,5.4,62.3c-0.3,1.9-0.5,3.8-1.4,5.6c-0.7,2.7-1.8,5.3-3.6,7.4c-3.6,4-7.9,3.3-9.3-1.9c-1.7-6.1-2.9-12.4-3.8-18.6
		c-0.5-3.9-0.3-7.7-4.9-9.3c1.7-3,3.5-5.8,2.4-9.8c-1.6-6.3-1.8-6.9-10.7-10.5c0.8-2,2.6-1.7,4.2-1.9c6.9-1,7.5-1.3,7-8.2
		c-0.9-11-1.6-22.1-5.1-32.6c-5.3-16.1-8.6-32.5-11.1-49.2c4.4,0.9,5.9,4.7,7.8,7.9c5,8.6,8.6,17.8,11.8,27.1
		C292.9,140.3,294,143.1,295.1,145.9z"/>
	<path class="st7" d="M232.4,238.8c-1.6,3.2-3.6,5.7-7.6,4.7c-4.5-1-8.3-3.4-10.1-7.7c-1.1-2.8-2-5.9-2-8.8
		c0.3-22.3-5.8-43.5-11.1-64.9c-0.4-1.6-0.5-3.3-0.7-4.9c3.5,1.2,3.5,4.7,4.7,7.4c2.9,6.8,4.7,14.1,8.3,20.7
		c4.6,1.4,5.8,5.5,6.6,9.3c0.6,2.9,1.4,5.7,3,8.2c3.2,4.7,3.3,10.4,5,15.6C232,224.8,235.4,231.2,232.4,238.8z"/>
	<path class="st8" d="M220.6,204.1c-3.1-6-5.4-12.2-6.9-18.7c4.6-11.9,9.2-23.7,13.9-35.6c2.6-6.7,2.7-6.6,9.5-6.3
		c4.1,0.2,8.3,0.4,12.4,0.6c-0.3,3.5-0.6,6.9-2.3,10.1c-6.6,4.5-8.8,11.6-11.3,18.6c-2.8,8-5.3,16.1-8.6,24
		C226,200,225,203.6,220.6,204.1z"/>
	<path class="st9" d="M172.2,257c-1.2,4.1-4.2,6.6-8,4.5c-4.2-2.3-5.9,0.8-9,2.9c-1.5-7.1-6-9.5-13-8.2c2-3.1,4.5-3.5,6.9-3.9
		c5.6-1.1,5.5-1.2,5.2-7.2c-0.2-5.5-0.3-11-1.6-16.4c3.8,0.8,4.6,4.4,6.3,7C163.7,242.6,166.4,250.8,172.2,257z"/>
	<path class="st2" d="M428.6,346.8c-1.2,0-2.3,0-3.5,0.1c0.9-1,2.1-1.5,3.4-1.6C428.8,345.7,428.8,346.2,428.6,346.8z"/>
	<path class="st2" d="M475.3,155.6c-0.6-0.6-1.3-1.2-1.9-1.8C474.4,154,474.9,154.7,475.3,155.6z"/>
	<path class="st4" d="M300.2,167.6c-1.6-2.4-1.6-5.2-1.7-7.9c-0.2-0.7-0.5-1.3-0.8-2c-0.1-0.6-0.2-1.2-0.3-1.9
		c24.6-0.4,49.2,1.4,73.7,2.2c17.9,0.6,35.9,0.5,53.8,1.2c10.8,0.4,21.4,2,32.2,1.7c4.8-0.1,6,1.6,6,5.9c0,3.8-1.8,5.7-5.6,5.6
		c-17.7-0.5-35.4,1.4-53-1.3c-1.4-0.2-2.8-0.4-4.1-0.3c-21.6,0.9-43.1-1.6-64.6-1.8c-3.9-3.9-3.9-3.9-8.6,0.2
		C317.5,174.9,306.4,174.2,300.2,167.6z"/>
	<path class="st10" d="M390.4,283.7c-1.5,5.5-5.4,8.8-10.3,11.2c-5.2,2.6-10.6,4.7-16.4,5.6c-10.4,1.7-20.2,5.4-29.8,9.7
		c-2.7,1.2-5.5,2.7-8.7,1.8c8.3-8.7,18.8-13.3,30.1-16.4c3.2-0.9,6.4-1.7,9.5-2.8c9.2-3.3,13.1-10.1,13.6-19.7
		c0.7-14-2-27.5-4.3-41.1c-1.2-7.1-1.7-14.2,0.4-21.3c5.7,16.6,8.6,34,12,51.1C388.1,269.1,389.2,276.5,390.4,283.7z"/>
	<path class="st11" d="M300.2,167.6c8.9,2.9,18.1,0.8,27.1,1.7c-8,19.5-12.2,40.1-16.6,60.5c-0.6,2.7-0.6,5.6-3.3,7.3
		c0-20.7-2.8-41-6.1-61.3C300.8,173,300.5,170.3,300.2,167.6z"/>
	<path class="st12" d="M336.5,172.4c6.7,17.9,9.8,36.7,13.6,55.3c1.3,6.5,2.4,13,3.6,19.5c1,1.7,1.1,3.3-0.1,4.9
		c-1.8,3.1-4.1,3.6-6.6,0.8c-2.6-2.9-4.4-6.5-5.4-10.2c-1.9-6.6-4.2-12.2-12.4-10.5c-0.4-2.4,0.9-2.6,1.8-3.2
		c2.3-1.6,6.8,0.3,7.5-3.8c0.7-4.4,0.9-9.4-2.2-12.7c-3.7-4-6.7-9.8-15.3-8.5c3.9-4.5,7.5-3.2,10.7-3.1c5,0.2,5.3,0,4.6-4.7
		C335.1,188.2,334.4,180.3,336.5,172.4z"/>
	<path class="st5" d="M220.6,204.1c5.1-14,10.3-28,15.4-42c2.8-7.5,2.7-7.5,11.3-7.9c-0.9,10.1-3,20-5.1,29.9
		c-2.7,8.5-4.3,17.3-6.7,25.9c-0.8,2.9-1.4,5.9-3.3,8.3c-1.7,2-3.6,4.8-6.3,0.9C223.7,214.2,221.6,209.3,220.6,204.1z"/>
	<path class="st13" d="M226,219.1c2.8,0.8,3.1-1.4,3.7-3.2c2.9-8,5.7-15.9,8.6-23.9c1-2.8,1.6-5.8,3.9-8
		c-1.3,10.9-2.6,21.8-3.9,32.7c-0.9,7.4-1.5,14.8-2.7,22.1c-0.5,3.4-2.1,0.5-3.2,0C231.3,231.9,227.4,225.9,226,219.1z"/>
	<path class="st14" d="M266.5,262.2c-1.9-7.8-7.2-8.5-12.8-9c5.2-4.7,8.8-5.4,12.4-2.6C269.4,253,269.7,255.3,266.5,262.2z"/>
	<path class="st15" d="M172,270.7c4.3-3.9,8.3-4.4,12.4-1.6c3.6,2.4,3.7,5.7,1.7,9.8c-3-1-3.2-4.4-5.5-5.7
		C178.2,271.7,175.2,272.8,172,270.7z"/>
	<path class="st15" d="M270.2,290.5c-2.5-7.5-7.4-8.7-13.3-9c5.8-4.5,8.5-5,12.1-2.6C272.6,281.5,272.8,284.7,270.2,290.5z"/>
	<path class="st16" d="M202,231.7c-2.2-7.4-6.6-10.1-13.8-9c5-4.1,9.5-4.8,12.7-2.3C204.5,223.2,204.9,226.5,202,231.7z"/>
	<path class="st17" d="M260.3,222.8c-3.9-3.7-7.1-8.1-13-8.2c4-3.5,8.1-3.2,11.9-0.8C262.3,215.9,263,218.9,260.3,222.8z"/>
	<path class="st16" d="M286,273c4.1-3.2,8.4-3.7,12.3-1.1c3,2,2.3,5.2,0.7,9.4C295.6,276.4,291.9,272.9,286,273z"/>
	<path class="st16" d="M202.1,295.2c-2.6-6.5-7.1-8.1-14-8.5c5.2-3.8,9.4-3.8,13.2-1.9C204.8,286.6,204.6,290.1,202.1,295.2z"/>
	<path class="st18" d="M353.6,252.1c0-1.6,0.1-3.3,0.1-4.9c1,0.5,1.9,0.9,2.9,1.4C356.5,250.5,355.3,251.5,353.6,252.1z"/>
	<path class="st2" d="M330.3,365.2c6.9,0.6,12.9-2.7,18.8-5.4c23.2-10.8,46.2-21.9,69.3-32.8c0.3,1.9,0.6,3.8,1,5.6
		c0.9,3.6,0.4,6-3.4,8c-5,2.7-5.5,6.3-2.6,11.2c-2.1,2.3-5,3.3-7.7,4.6c-22.9,11.2-45.8,22.4-68.8,33.5c-1.6-5-2-10.3-1.6-15.5
		C335.7,370.2,334.2,367.1,330.3,365.2z"/>
	<path class="st2" d="M420.1,326.9c0.9-1,2-1.5,3.3-1.6C422.5,326.3,421.3,326.8,420.1,326.9z"/>
	<path class="st2" d="M423.4,346.9c-0.6,0.5-1.1,1.1-1.7,1.6C422.3,347.9,422.8,347.4,423.4,346.9z"/>
	<path class="st2" d="M420.1,348.5c-0.6,0.5-1.1,1.1-1.7,1.6C419,349.6,419.5,349.1,420.1,348.5z"/>
	<path class="st2" d="M416.8,350.2c-0.6,0.5-1.1,1.1-1.7,1.6C415.6,351.3,416.2,350.7,416.8,350.2z"/>
	<path class="st2" d="M297.7,157.7c0.3,0.7,0.5,1.3,0.8,2C298.2,159,297.9,158.3,297.7,157.7z"/>
</g>
</svg>
