<?xml version="1.0" encoding="utf-8"?>
<!-- Generator: Adobe Illustrator 19.1.0, SVG Export Plug-In . SVG Version: 6.00 Build 0)  -->
<svg version="1.1" id="Layer_1" xmlns="http://www.w3.org/2000/svg" xmlns:xlink="http://www.w3.org/1999/xlink" x="0px" y="0px"
	 viewBox="-254 675.9 570.1 570.1" style="enable-background:new -254 675.9 570.1 570.1;" xml:space="preserve">
<style type="text/css">
	.st0{fill:#D8D1C9;}
	.st1{fill:#F7981D;}
	.st2{fill:#A1796F;}
	.st3{fill:#B3857B;}
	.st4{fill:#8E6B62;}
	.st5{fill:#8F6C62;}
	.st6{fill:#FDBC11;}
	.st7{fill:#FDBC13;}
	.st8{fill:#A2796F;}
	.st9{fill:#FDBC14;}
	.st10{fill:#FBB018;}
	.st11{fill:#A27A6F;}
	.st12{fill:#FDBB11;}
	.st13{fill:#A37A6D;}
	.st14{fill:#FCB713;}
	.st15{fill:#FCB813;}
	.st16{fill:#FCB912;}
	.st17{fill:#FCB913;}
	.st18{fill:#BE8559;}
</style>
<circle class="st0" cx="31" cy="960.9" r="285"/>
<g>
	<path class="st1" d="M2.7,846.2c2-6.7,3.9-13.4,6-20.1c1.2-3.8,2.7-7.4,5.2-10.5c1.8-2.2,3.5-4.7,7-2.8c1.8,2,3.2,4.2,3.7,6.9
		c2.6,13.8,7.4,27.2,10.2,41c1,5,1,10.1,2,15c0.2,1.3,0.6,3.1-0.1,3.9c-5.3,6.2-0.6,12.6-0.2,18.9c0.2,6.8,2.5,13.4,3.7,20.1
		c0.3,1.8,0.3,4.5,2.9,4.6c2.4,0.2,2.6-2.6,3.8-4.2c2.8-3.1,3.6-7,4-11c1.3-11.9,4.7-23.3,8.1-34.6c0.9-3,3.1-5.3,4.3-8.1
		c2.9-3.6,6.1-4.4,9.6-0.8c0.6,1.3,1.4,2.5,1.6,3.9c-1.3,5.9-1.2,11.8,0.2,17.7c1.1,5.1,0.2,6.2-5,7.9c5.4,5.9,10.8,11.9,4.8,20.6
		c-0.5,0.6-0.7,0.2-0.3,0.5c5.2,3.7,3.7,12,10.1,14.6c1.5-0.2,2.3-1.2,2.9-2.6c1.4-9.4,4-18.4,7.7-27.1c1.1-2.7,3.1-5.1,6.4-5
		c2.6,0.1,3.5,2.2,3.8,4.6c-2.9,10.8,1.3,21,3,31.3c1.3,7.7,1.6,15.4,0.6,23c-1.1,8-6.6,12.8-14.4,14.6c-11.4,2.5-22,6.4-30.8,14.2
		c-11.8,1.5-23.3-1.4-34.9-2.6c-26.2-2.6-52.2-5.7-78.3-8.6c-11.8-1.4-23.7-2.6-35.5-4.2c-6.9-1-8.5-4.9-5-11.3
		c2.2-5.8,2.4-12.1,3.8-18c1.6-6.4,2.9-13,5.8-19c1.2-2.5,2-6.2,6.3-5.2c3.4,4.2,4.1,9.2,4.2,14.4c0.2,4.6-1.8,6.9-5.9,6.3
		c5.1,2.2,11,3.8,17.3,2c4.1-22.1,8.2-44.2,14.7-65.8c1.1-3.8,2.4-7.6,4.3-11c0.8-1.4,1.3-3.5,3.8-2.9c6,16.6,12.2,33.1,12.2,51.1
		c0,2.9,0.4,5.8,1.4,8.5c1.9,5.5,4.3,6.5,10.1,4.1c1.9-1.1,2.7-3,2.6-5c-0.8-10.6,3.5-20.6,4.2-31c0.2-2.2,0.1-4.3-0.1-6.5
		c1.5-7.8,2.5-15.6,4.7-23.2C-1.3,851.1-0.2,848.2,2.7,846.2z"/>
	<path class="st2" d="M72.2,868.8c-0.2-0.9-0.3-1.8-0.6-2.7c1.5-2.9,4.3-3,7-2.8c17.4,1.7,34.9,0.5,52.2,2c11,1,22.1,0.5,33.1,0.2
		c1,0,2.2-0.2,3-2.5c-7.9-0.9-15.8-1.8-23.5-1.7c-23.7,0.2-47.3-1.5-70.9-1.8c-10.7-0.2-21.7,0.2-32.2-2.9c-3.1-2.6-4-5.7-1.3-9.1
		c28.9,1.1,57.8,2.2,86.6,3.4c16.3,0.6,32.6,1.2,49,1.9c2.4,0.1,4.9-0.6,7,1c0.9,4.1-0.2,7.7-1.6,11.5c-10.6,27.6-21,55.3-31.3,82.9
		c-1.4,3.6-3.1,6.8-5.7,9.6c-2.2,2.5-1.2,5.4-1,8.2c1,11,2.2,21.9,3.4,32.9c0.2,2.6,0.2,5.3,0.3,7.9c-0.9,0.6-1.2,1.5-1.7,2.3
		c-0.3,0.4-0.6,0.7-1,1c-0.6,0.4-1.2,0.8-1.8,1.1c-0.4,0.2-0.8,0.5-1.3,0.7c-0.6,0.4-1.4,0.7-2,1c-0.5,0.2-1,0.5-1.5,0.6
		c-0.9,0.2-1.7,0.3-2.6,0.2c-0.6-0.1-1.2-0.3-1.8-0.6c-3.7-3.2-2.7-7-0.2-9.8c2.8-3.2,3.8-6.6,4.2-10.6c0.2-0.6,0.4-1,0.7-1.6
		c0.6-0.9,1.1-1.8,1.4-2.9c-1.4-4.1-3.9-1.4-5.8-0.8c-10.7,4.2-20.8,9.7-31.3,14.5c-7.8,3.6-15.8,7-23.4,10.9
		c-2.9,1.4-6.1,3.2-9.2,0.2c-2.4-3.9-1.2-8.5-1.8-12.6c-0.6-4.1-2.4-7.8-2.6-11.9c0.7-1.8,2.3-2.5,4-3.1c18.6-6.9,36.8-14.6,55-22.6
		c4-1.8,8.5-1.8,10.5-2.7c-5.4-0.1-12.6,2.5-19.6-1.9c-3.3-4.2-3.4-9.5-4-14.4c-2-14.9-6.5-29.4-7.1-44.6c-0.2-1.3-0.5-2.8-2-3
		c-1.2-0.2-1.9,1-2.3,2.1c-1.3,3-2.5,6.1-3.5,9.2c-2.3,7.4-4.5,14.7-6.7,22.1c-1.6,0.6-3,0.1-4.1-1c-3.8-7.1-3.8-15.3-5.5-23
		C76,893.5,72.9,881.4,72.2,868.8z"/>
	<path class="st3" d="M75.4,1089.7c-8.2,0.3-16.1-2.2-24.1-3.5c-51.7-9-103.3-18.2-154.9-27.4c-11.5-2.1-23-4.3-34.6-6.2
		c-3.7-0.6-4.7-2.2-4.6-5.8c0.3-7.5,1.9-15,1.5-22.5c2-2.8,4.7-2.7,7.7-2.2c32.8,4.6,65.6,9.6,98.4,14.4
		c31.9,4.6,63.8,9.3,95.7,14.2c4.5,0.7,9.4,0.6,13.3,3.6c2.2,3.2,2.8,6.8,3,10.6c0.4,6.1-0.2,12.2,1,18.3
		C78.2,1085.7,76.7,1087.8,75.4,1089.7z"/>
	<path class="st3" d="M64.6,988.5c2.4,1.4,3.7,3,4.2,6.1c1.1,6.3,1.1,12.6,1,19c-1.8,2.7-4.3,2.5-7,2.2
		c-30.7-3.4-61.3-7.8-91.9-11.6c-30-3.8-60-7.5-89.9-11.6c-6.2-0.9-13.6,0.8-18.3-5.4c-0.3-5.2,0.2-10.3,1-15.4
		c0.4-2.7,1.4-4.6,4.4-4.4c12.1-0.2,24.2,0.8,36.2,2.2c29.2,3.4,58.5,5.9,87.7,9c19.5,2,39.1,4.2,58.6,5.9
		C55.4,984.8,60.9,983.9,64.6,988.5z"/>
	<path class="st3" d="M-142.5,1015.1c1.6-1.8,2.7-3.6,2.8-6.2c0.1-4.2,0.7-8.3,1.1-12.4c7-3.7,14-0.6,20.8,0.2
		c33.4,4.3,67,8.2,100.4,12.8c28.4,3.8,57,6.6,85.3,11.3c4.7,1.9,6.6,5.6,6.4,10.6c-0.2,4,0.8,7.9-0.3,11.9c-2.3,4.3-6.5,4.2-10.5,4
		c-10.8-0.8-21.4-3-32.2-4.6c-47-6.7-94.1-13.9-141.1-20.6c-9.2-1.3-18.3-3-27.6-4C-139.5,1017.6-141.2,1016.7-142.5,1015.1z"/>
	<path class="st4" d="M143.2,958c-1-1.8-0.1-3.4,0.5-5c8.8-23.1,17.7-46.2,26.5-69.4c3-8.1,6-16.2,9-24.2c0.7-1.8,1.1-3.8,2.6-5.4
		v0.1c0.2,0.7,0.9,1.1,1.5,1.4c10,11,17.4,23.4,21,37.9c4.6,18.7-0.8,34.2-16.2,45.8C174.8,949.3,159.4,954.7,143.2,958z"/>
	<path class="st4" d="M-142.5,1015.1c10.1-1,19.8,1.8,29.6,3.1c20.4,2.7,40.7,5.8,61,8.8c19,2.8,38,5.8,57,8.6
		c16.2,2.4,32.3,4.8,48.6,7.2c2.4,0.3,4.8,0.8,7.2,1c3.9,0.4,7.9,1.1,11.7-1c2.1-5.8,7.7-7.1,12.3-9.2c13-5.8,25.4-12.5,38.2-18.7
		c3.4-1.7,6.9-2.8,10.7-2.6c0.5,0,0.9,0,1.4-0.1c0.5-0.4,0.9-0.9,1.4-1.3c0.5,0,0.9,0,1.4-0.1c0.5-0.4,0.9-0.9,1.4-1.3
		c0.5,0,0.9,0,1.4,0c0.5-0.4,0.9-0.9,1.4-1.3c0.5,0,0.9,0,1.4-0.1c1-0.7,1.8-0.8,2.8-0.1c0.2,3.2,3.7,5.9,1.4,9.4
		c-2,3.5-5,5.9-8.8,7.6c-19.4,8.6-38.1,18.5-57,27.8c-2.7,1.4-5.5,3-8.8,1.6c-8.9,0.5-17.5-2.1-26.2-3.2
		c-20.1-2.6-40.2-5.8-60.2-8.7c-19-2.8-37.9-5.7-56.9-8.5c-16.6-2.5-33.1-5-49.7-7.4c-7-1-14-1.8-21-2.7c-2-0.4-2.7-1.7-2.2-3.7
		C-143.1,1018.8-142.8,1017-142.5,1015.1z"/>
	<path class="st4" d="M67.3,1023.1c-9.3-0.5-18.4-2.2-27.6-3.3c-12.2-1.5-24.5-3.1-36.7-4.7c-12-1.5-24.1-3-36.1-4.6
		c-12.2-1.6-24.5-3.2-36.7-4.7c-11.8-1.5-23.6-2.9-35.4-4.4c-9.2-1.2-18.3-2.5-27.5-3.6c-2-0.2-3.9-0.4-5.8-1.4
		c-0.1-3.1,0.2-6.2,1.3-9.3c21,2.6,42,5.3,63,8c19,2.5,38,5.1,57,7.5c19,2.4,38.1,4.7,57.1,7c10.1,1.3,20.1,2.6,30.2,3.8
		c18-8.5,36-17,54-25.5c3.2-1.5,6.5-2.9,9.8-4.2c1.9-0.8,4.2-2.9,6.1-0.9c2.1,2.2,4.3,4.7,2,8.2c-0.7,0.8-2,0.5-2.6,1.3
		c-0.5,0-0.9,0.1-1.4,0.1c-2.7,6.2-8.7,7.8-14.1,10.2c-13.4,6.2-26.9,12.2-40.1,18.8C78.3,1024.2,73,1025.7,67.3,1023.1z"/>
	<path class="st2" d="M72.6,1054.8c1.1-0.7,2.1-1.6,3.3-2.2c23.6-11.9,47.3-23.8,71.4-34.9c0.8,7.4,1.5,14.9,2.3,22.3
		c0.3,2.8-0.1,5-2.9,6.6c-23.4,14.1-46.7,28.4-70.1,42.6c-0.3,0.2-0.9,0.2-1.3,0.3C74.5,1078.1,73.5,1066.4,72.6,1054.8z"/>
	<path class="st5" d="M64.6,988.5C52,988,39.6,986.2,27,985c-10.5-1-21-2.2-31.5-3.2c-11.4-1.2-22.8-2.4-34.2-3.5
		c-10.5-1-21-2.1-31.5-3.1c-11.2-1.1-22.3-2.4-33.5-3.5c-6.8-0.7-13.6-1.3-20.4-1.8c-2.9-0.2-5.8-0.2-7.9-2.6
		c13.8-3.8,27.4-7.5,41.2-11.4c0.1,7.9,0.1,7.8,8.4,8.7c21.5,2.4,43,4.9,64.6,7.4c21.8,2.5,43.5,4.9,65.3,7.2
		c5.3,0.6,10.5,1.8,15.8,1.4c10.1-5.4,20.5-9.9,31.8-12.4c5.9-1.3,11.8-3.8,16.2-8.5c1-1.2,2.5-1.8,4.2-1.8
		c7.3,0.1,14.6-0.6,22.1,1.9c-7.5,4.7-15.8,7-23.5,10.5c-12.7,5.6-25.6,10.7-38.5,16C72,987.8,68.4,988.7,64.6,988.5z"/>
	<path class="st6" d="M39.1,847.6c0.1,2.8,0.9,5.4,1.9,7.9c0.4,0.5,0.9,0.9,1.4,1.3c0.9,0.6,1.5,1.3,1.9,2.2
		c0.7,2.3,1.4,4.7,1.4,7.2c4,16.4,6.6,32.9,4.3,49.8c-0.2,1.5-0.4,3-1.1,4.5c-0.6,2.2-1.4,4.2-2.9,5.9c-2.9,3.2-6.3,2.6-7.4-1.5
		c-1.4-4.9-2.3-9.9-3-14.9c-0.4-3.1-0.2-6.2-3.9-7.4c1.4-2.4,2.8-4.6,1.9-7.8c-1.3-5-1.4-5.5-8.6-8.4c0.6-1.6,2.1-1.4,3.4-1.5
		c5.5-0.8,6-1,5.6-6.6c-0.7-8.8-1.3-17.7-4.1-26.1c-4.2-12.9-6.9-26-8.9-39.4c3.5,0.7,4.7,3.8,6.2,6.3c4,6.9,6.9,14.2,9.4,21.7
		C37.4,843.1,38.2,845.4,39.1,847.6z"/>
	<path class="st7" d="M-11,921.9c-1.3,2.6-2.9,4.6-6.1,3.8c-3.6-0.8-6.6-2.7-8.1-6.2c-0.9-2.2-1.6-4.7-1.6-7
		c0.2-17.8-4.6-34.8-8.9-51.9c-0.3-1.3-0.4-2.6-0.6-3.9c2.8,1,2.8,3.8,3.8,5.9c2.3,5.4,3.8,11.3,6.6,16.6c3.7,1.1,4.6,4.4,5.3,7.4
		c0.5,2.3,1.1,4.6,2.4,6.6c2.6,3.8,2.6,8.3,4,12.5C-11.4,910.7-8.6,915.9-11,921.9z"/>
	<path class="st8" d="M-20.5,894.2c-2.5-4.8-4.3-9.8-5.5-15c3.7-9.5,7.4-19,11.1-28.5c2.1-5.4,2.2-5.3,7.6-5
		c3.3,0.2,6.6,0.3,9.9,0.5c-0.2,2.8-0.5,5.5-1.8,8.1c-5.3,3.6-7,9.3-9,14.9c-2.2,6.4-4.2,12.9-6.9,19.2
		C-16.2,890.9-17,893.8-20.5,894.2z"/>
	<path class="st9" d="M-59.2,936.5c-1,3.3-3.4,5.3-6.4,3.6c-3.4-1.8-4.7,0.6-7.2,2.3c-1.2-5.7-4.8-7.6-10.4-6.6
		c1.6-2.5,3.6-2.8,5.5-3.1c4.5-0.9,4.4-1,4.2-5.8c-0.2-4.4-0.2-8.8-1.3-13.1c3,0.6,3.7,3.5,5,5.6C-66,925-63.8,931.5-59.2,936.5z"/>
	<path class="st2" d="M145.9,1008.3c-1,0-1.8,0-2.8,0.1c0.7-0.8,1.7-1.2,2.7-1.3C146.1,1007.5,146.1,1007.9,145.9,1008.3z"/>
	<path class="st2" d="M183.3,855.4c-0.5-0.5-1-1-1.5-1.4C182.6,854.1,183,854.7,183.3,855.4z"/>
	<path class="st4" d="M43.2,865c-1.3-1.9-1.3-4.2-1.4-6.3c-0.2-0.6-0.4-1-0.6-1.6c-0.1-0.5-0.2-1-0.2-1.5c19.7-0.3,39.4,1.1,59,1.8
		c14.3,0.5,28.7,0.4,43,1c8.6,0.3,17.1,1.6,25.8,1.4c3.8-0.1,4.8,1.3,4.8,4.7c0,3-1.4,4.6-4.5,4.5c-14.2-0.4-28.3,1.1-42.4-1
		c-1.1-0.2-2.2-0.3-3.3-0.2c-17.3,0.7-34.5-1.3-51.7-1.4c-3.1-3.1-3.1-3.1-6.9,0.2C57,870.8,48.2,870.3,43.2,865z"/>
	<path class="st10" d="M115.4,957.9c-1.2,4.4-4.3,7-8.2,9c-4.2,2.1-8.5,3.8-13.1,4.5c-8.3,1.4-16.2,4.3-23.8,7.8
		c-2.2,1-4.4,2.2-7,1.4c6.6-7,15-10.6,24.1-13.1c2.6-0.7,5.1-1.4,7.6-2.2c7.4-2.6,10.5-8.1,10.9-15.8c0.6-11.2-1.6-22-3.4-32.9
		c-1-5.7-1.4-11.4,0.3-17c4.6,13.3,6.9,27.2,9.6,40.9C113.5,946.2,114.4,952.1,115.4,957.9z"/>
	<path class="st11" d="M43.2,865c7.1,2.3,14.5,0.6,21.7,1.4c-6.4,15.6-9.8,32.1-13.3,48.4c-0.5,2.2-0.5,4.5-2.6,5.8
		c0-16.6-2.2-32.8-4.9-49C43.7,869.3,43.4,867.1,43.2,865z"/>
	<path class="st12" d="M72.2,868.8c5.4,14.3,7.8,29.4,10.9,44.2c1,5.2,1.9,10.4,2.9,15.6c0.8,1.4,0.9,2.6-0.1,3.9
		c-1.4,2.5-3.3,2.9-5.3,0.6c-2.1-2.3-3.5-5.2-4.3-8.2c-1.5-5.3-3.4-9.8-9.9-8.4c-0.3-1.9,0.7-2.1,1.4-2.6c1.8-1.3,5.4,0.2,6-3
		c0.6-3.5,0.7-7.5-1.8-10.2c-3-3.2-5.4-7.8-12.2-6.8c3.1-3.6,6-2.6,8.6-2.5c4,0.2,4.2,0,3.7-3.8C71.1,881.5,70.6,875.1,72.2,868.8z"
		/>
	<path class="st5" d="M-20.5,894.2c4.1-11.2,8.2-22.4,12.3-33.6c2.2-6,2.2-6,9-6.3c-0.7,8.1-2.4,16-4.1,23.9
		c-2.2,6.8-3.4,13.8-5.4,20.7c-0.6,2.3-1.1,4.7-2.6,6.6c-1.4,1.6-2.9,3.8-5,0.7C-18,902.3-19.7,898.3-20.5,894.2z"/>
	<path class="st13" d="M-16.2,906.2c2.2,0.6,2.5-1.1,3-2.6c2.3-6.4,4.6-12.7,6.9-19.1c0.8-2.2,1.3-4.6,3.1-6.4
		c-1,8.7-2.1,17.4-3.1,26.2c-0.7,5.9-1.2,11.8-2.2,17.7c-0.4,2.7-1.7,0.4-2.6,0C-11.9,916.4-15,911.6-16.2,906.2z"/>
	<path class="st14" d="M16.2,940.7c-1.5-6.2-5.8-6.8-10.2-7.2c4.2-3.8,7-4.3,9.9-2.1C18.6,933.3,18.8,935.1,16.2,940.7z"/>
	<path class="st15" d="M-59.4,947.5c3.4-3.1,6.6-3.5,9.9-1.3c2.9,1.9,3,4.6,1.4,7.8c-2.4-0.8-2.6-3.5-4.4-4.6
		C-54.4,948.3-56.8,949.1-59.4,947.5z"/>
	<path class="st15" d="M19.2,963.3c-2-6-5.9-7-10.6-7.2c4.6-3.6,6.8-4,9.7-2.1C21.1,956.1,21.3,958.7,19.2,963.3z"/>
	<path class="st16" d="M-35.4,916.3c-1.8-5.9-5.3-8.1-11-7.2c4-3.3,7.6-3.8,10.2-1.8C-33.4,909.5-33,912.1-35.4,916.3z"/>
	<path class="st17" d="M11.3,909.1c-3.1-3-5.7-6.5-10.4-6.6c3.2-2.8,6.5-2.6,9.5-0.6C12.9,903.6,13.4,906,11.3,909.1z"/>
	<path class="st16" d="M31.8,949.3c3.3-2.6,6.7-3,9.8-0.9c2.4,1.6,1.8,4.2,0.6,7.5C39.5,952,36.6,949.2,31.8,949.3z"/>
	<path class="st16" d="M-35.3,967.1c-2.1-5.2-5.7-6.5-11.2-6.8c4.2-3,7.5-3,10.6-1.5C-33.1,960.2-33.3,963-35.3,967.1z"/>
	<path class="st18" d="M85.9,932.6c0-1.3,0.1-2.6,0.1-3.9c0.8,0.4,1.5,0.7,2.3,1.1C88.2,931.3,87.3,932.1,85.9,932.6z"/>
	<path class="st2" d="M67.3,1023.1c5.5,0.5,10.3-2.2,15-4.3c18.6-8.6,37-17.5,55.4-26.2c0.2,1.5,0.5,3,0.8,4.5
		c0.7,2.9,0.3,4.8-2.7,6.4c-4,2.2-4.4,5-2.1,9c-1.7,1.8-4,2.6-6.2,3.7c-18.3,9-36.6,17.9-55,26.8c-1.3-4-1.6-8.2-1.3-12.4
		C71.6,1027.1,70.4,1024.6,67.3,1023.1z"/>
	<path class="st2" d="M139.1,992.4c0.7-0.8,1.6-1.2,2.6-1.3C141,991.9,140.1,992.3,139.1,992.4z"/>
	<path class="st2" d="M141.8,1008.4c-0.5,0.4-0.9,0.9-1.4,1.3C140.9,1009.2,141.3,1008.8,141.8,1008.4z"/>
	<path class="st2" d="M139.1,1009.7c-0.5,0.4-0.9,0.9-1.4,1.3C138.2,1010.6,138.6,1010.2,139.1,1009.7z"/>
	<path class="st2" d="M136.5,1011.1c-0.5,0.4-0.9,0.9-1.4,1.3C135.5,1011.9,136,1011.5,136.5,1011.1z"/>
	<path class="st2" d="M41.2,857.1c0.2,0.6,0.4,1,0.6,1.6C41.6,858.1,41.4,857.5,41.2,857.1z"/>
</g>
</svg>
